<svg width="175" height="217" viewBox="0 0 175 217" fill="none" xmlns="http://www.w3.org/2000/svg">
<rect width="175" height="217" rx="12" fill="#F6F8FA"/>
<rect x="16.5" y="16.5" width="142" height="86" rx="7.5" fill="white" stroke="#F4F4F6"/>
<rect x="16.5" y="115.5" width="142" height="85" rx="7.5" fill="white" stroke="#F4F4F6"/>
<g filter="url(#filter0_di_140_1526)">
<rect x="28" y="28" width="20" height="20" rx="5" fill="url(#paint0_radial_140_1526)"/>
<rect x="27.5833" y="27.5833" width="20.8333" height="20.8333" rx="5.41667" stroke="#BDB6F6" stroke-width="0.833333"/>
<rect x="29.875" y="29.8748" width="16.25" height="16.25" rx="3.125" stroke="white" stroke-opacity="0.4" stroke-width="0.416667"/>
<path d="M37.1667 37.9998C37.1667 37.5396 37.5398 37.1665 38 37.1665C38.4603 37.1665 38.8334 37.5396 38.8334 37.9998C38.8334 38.4601 38.4603 38.8332 38 38.8332C37.5398 38.8332 37.1667 38.4601 37.1667 37.9998Z" fill="white"/>
<path fill-rule="evenodd" clip-rule="evenodd" d="M38 34.6665C36.8077 34.6665 35.8356 35.1935 35.1153 35.7946C34.3961 36.3949 33.9029 37.0891 33.6559 37.4802L33.6459 37.496C33.5969 37.5732 33.5333 37.6733 33.5011 37.8137C33.4751 37.927 33.4751 38.0727 33.5011 38.186C33.5333 38.3264 33.5969 38.4265 33.6459 38.5037L33.656 38.5195C33.9029 38.9106 34.3961 39.6048 35.1153 40.2051C35.8356 40.8062 36.8077 41.3332 38 41.3332C39.1924 41.3332 40.1645 40.8062 40.8847 40.2051C41.604 39.6048 42.0971 38.9106 42.3441 38.5195L42.3541 38.5037C42.4031 38.4265 42.4668 38.3264 42.4989 38.186C42.5249 38.0727 42.5249 37.927 42.4989 37.8137C42.4668 37.6733 42.4031 37.5732 42.3541 37.496L42.3441 37.4802C42.0971 37.0891 41.604 36.3949 40.8847 35.7946C40.1645 35.1935 39.1924 34.6665 38 34.6665ZM38 36.3332C37.0795 36.3332 36.3334 37.0794 36.3334 37.9998C36.3334 38.9203 37.0795 39.6665 38 39.6665C38.9205 39.6665 39.6667 38.9203 39.6667 37.9998C39.6667 37.0794 38.9205 36.3332 38 36.3332Z" fill="white"/>
</g>
<g filter="url(#filter1_di_140_1526)">
<rect x="28" y="127" width="20" height="20" rx="5" fill="url(#paint1_radial_140_1526)"/>
<rect x="27.5833" y="126.583" width="20.8333" height="20.8333" rx="5.41667" stroke="#BDB6F6" stroke-width="0.833333"/>
<rect x="29.875" y="128.875" width="16.25" height="16.25" rx="3.125" stroke="white" stroke-opacity="0.4" stroke-width="0.416667"/>
<path fill-rule="evenodd" clip-rule="evenodd" d="M34.4867 134.5C34.4912 134.5 34.4956 134.5 34.5 134.5H34.8334C34.8378 134.5 34.8422 134.5 34.8466 134.5C34.9518 134.5 35.0542 134.5 35.141 134.507C35.2362 134.515 35.3486 134.533 35.4617 134.591C35.6185 134.671 35.746 134.798 35.8259 134.955C35.8835 135.068 35.9018 135.18 35.9096 135.276C35.9167 135.362 35.9167 135.465 35.9167 135.57C35.9167 135.574 35.9167 135.579 35.9167 135.583L35.9167 140.097C35.9167 140.202 35.9167 140.304 35.9096 140.391C35.9018 140.486 35.8835 140.598 35.8259 140.712C35.746 140.868 35.6185 140.996 35.4617 141.076C35.3486 141.133 35.2362 141.152 35.141 141.16C35.0542 141.167 34.9518 141.167 34.8466 141.167H34.4867C34.3816 141.167 34.2792 141.167 34.1924 141.16C34.0972 141.152 33.9848 141.133 33.8717 141.076C33.7149 140.996 33.5874 140.868 33.5075 140.712C33.4499 140.598 33.4315 140.486 33.4237 140.391C33.4167 140.304 33.4167 140.202 33.4167 140.097L33.4167 135.583C33.4167 135.579 33.4167 135.574 33.4167 135.57C33.4167 135.465 33.4167 135.362 33.4237 135.276C33.4315 135.18 33.4499 135.068 33.5075 134.955C33.5874 134.798 33.7149 134.671 33.8717 134.591C33.9848 134.533 34.0972 134.515 34.1924 134.507C34.2792 134.5 34.3816 134.5 34.4867 134.5Z" fill="white"/>
<path fill-rule="evenodd" clip-rule="evenodd" d="M37.8201 132.833C37.8245 132.833 37.8289 132.833 37.8334 132.833L38.1667 132.833C38.1711 132.833 38.1756 132.833 38.18 132.833C38.2851 132.833 38.3876 132.833 38.4743 132.84C38.5695 132.848 38.6819 132.866 38.795 132.924C38.9518 133.004 39.0793 133.131 39.1592 133.288C39.2168 133.401 39.2352 133.514 39.243 133.609C39.25 133.696 39.25 133.798 39.25 133.903C39.25 133.908 39.25 133.912 39.25 133.917L39.25 140.097C39.25 140.202 39.25 140.304 39.243 140.391C39.2352 140.486 39.2168 140.598 39.1592 140.712C39.0793 140.868 38.9518 140.996 38.795 141.076C38.6819 141.133 38.5695 141.152 38.4743 141.16C38.3876 141.167 38.2851 141.167 38.18 141.167H37.8201C37.7149 141.167 37.6125 141.167 37.5258 141.16C37.4305 141.152 37.3181 141.133 37.205 141.076C37.0482 140.996 36.9207 140.868 36.8408 140.712C36.7832 140.598 36.7649 140.486 36.7571 140.391C36.75 140.304 36.75 140.202 36.75 140.097L36.75 133.917C36.75 133.912 36.75 133.908 36.75 133.903C36.75 133.798 36.75 133.696 36.7571 133.609C36.7649 133.514 36.7832 133.401 36.8408 133.288C36.9207 133.131 37.0482 133.004 37.205 132.924C37.3181 132.866 37.4305 132.848 37.5258 132.84C37.6125 132.833 37.7149 132.833 37.8201 132.833Z" fill="white"/>
<path fill-rule="evenodd" clip-rule="evenodd" d="M41.1534 136.167C41.1578 136.167 41.1623 136.167 41.1667 136.167H41.5C41.5045 136.167 41.5089 136.167 41.5133 136.167C41.6185 136.167 41.7209 136.167 41.8076 136.174C41.9029 136.181 42.0153 136.2 42.1283 136.257C42.2851 136.337 42.4126 136.465 42.4925 136.622C42.5502 136.735 42.5685 136.847 42.5763 136.942C42.5834 137.029 42.5834 137.131 42.5834 137.237C42.5834 137.241 42.5834 137.245 42.5834 137.25L42.5834 140.097C42.5834 140.202 42.5834 140.304 42.5763 140.391C42.5685 140.486 42.5502 140.598 42.4925 140.712C42.4126 140.868 42.2851 140.996 42.1283 141.076C42.0153 141.133 41.9029 141.152 41.8076 141.16C41.7209 141.167 41.6185 141.167 41.5133 141.167H41.1534C41.0482 141.167 40.9458 141.167 40.8591 141.16C40.7638 141.152 40.6515 141.133 40.5384 141.076C40.3816 140.996 40.2541 140.868 40.1742 140.712C40.1166 140.598 40.0982 140.486 40.0904 140.391C40.0833 140.304 40.0833 140.202 40.0834 140.097L40.0834 137.25C40.0834 137.245 40.0834 137.241 40.0834 137.237C40.0833 137.131 40.0833 137.029 40.0904 136.942C40.0982 136.847 40.1166 136.735 40.1742 136.622C40.2541 136.465 40.3816 136.337 40.5384 136.257C40.6515 136.2 40.7638 136.181 40.8591 136.174C40.9458 136.167 41.0482 136.167 41.1534 136.167Z" fill="white"/>
</g>
<path d="M32.736 74.144C31.584 74.144 30.64 73.824 29.92 73.184C29.2 72.528 28.848 71.728 28.848 70.768H30.688C30.736 71.744 31.456 72.512 32.736 72.512C34.144 72.512 34.816 71.6 34.816 70.304C34.816 69.072 34.112 68.16 32.752 68.16C31.968 68.16 31.328 68.48 30.848 69.136H29.024L29.456 62.8H36V64.448H30.992L30.784 67.392H30.848C31.376 66.88 32.112 66.624 33.024 66.624C34.128 66.624 35.024 66.976 35.68 67.664C36.336 68.352 36.672 69.216 36.672 70.272C36.672 72.592 35.248 74.144 32.736 74.144ZM39.084 76.208H37.644V76.048L38.14 72.288H40.204V72.448L39.084 76.208ZM41.5845 68.368C41.5845 66.592 41.9205 65.2 42.5765 64.16C43.2485 63.12 44.2885 62.608 45.6965 62.608C47.1045 62.608 48.1445 63.12 48.8005 64.16C49.4725 65.2 49.8085 66.592 49.8085 68.368C49.8085 70.144 49.4725 71.552 48.8005 72.592C48.1445 73.632 47.1045 74.144 45.6965 74.144C44.2885 74.144 43.2485 73.632 42.5765 72.592C41.9205 71.552 41.5845 70.144 41.5845 68.368ZM47.9365 68.368C47.9365 65.728 47.3445 64.24 45.6965 64.24C44.0485 64.24 43.4565 65.728 43.4565 68.368C43.4565 71.04 44.0325 72.512 45.6965 72.512C47.3605 72.512 47.9365 71.04 47.9365 68.368ZM57.3594 68.032V68.096C58.5914 68.576 59.1994 69.488 59.1994 70.832C59.1994 72.896 57.6474 74.128 55.2154 74.144C52.7834 74.128 51.2314 72.896 51.2314 70.832C51.2314 69.488 51.8394 68.576 53.0714 68.096V68.032C52.0634 67.552 51.5674 66.736 51.5674 65.568C51.5674 64.672 51.9034 63.952 52.5594 63.424C53.2314 62.896 54.1114 62.624 55.2154 62.608C56.3194 62.624 57.1994 62.896 57.8554 63.424C58.5274 63.952 58.8634 64.672 58.8634 65.568C58.8634 66.736 58.3674 67.552 57.3594 68.032ZM53.4234 65.744C53.4234 66.688 54.1274 67.312 55.2154 67.312C56.3034 67.312 57.0074 66.688 57.0074 65.744C57.0074 64.784 56.3514 64.208 55.2154 64.208C54.0794 64.208 53.4234 64.784 53.4234 65.744ZM55.2154 72.544C56.5754 72.528 57.3274 71.856 57.3274 70.72C57.3274 69.632 56.6074 68.928 55.2154 68.912C53.8234 68.928 53.1034 69.632 53.1034 70.72C53.1034 71.856 53.8554 72.528 55.2154 72.544ZM64.3924 74.144C63.3524 74.144 62.5044 73.856 61.8484 73.296C61.1924 72.72 60.8244 71.984 60.7124 71.104H62.5204C62.6484 71.952 63.3524 72.496 64.3924 72.496C66.0564 72.496 66.9044 71.056 66.9044 68.768H66.8404C66.2804 69.632 65.4164 70.064 64.2644 70.064C63.1284 70.064 62.2484 69.712 61.5924 68.992C60.9364 68.272 60.6164 67.424 60.6164 66.416C60.6164 65.312 60.9684 64.416 61.6884 63.696C62.4084 62.976 63.3684 62.608 64.5684 62.608C65.9604 62.608 66.9844 63.104 67.6564 64.112C68.3444 65.104 68.6804 66.464 68.6804 68.176C68.6804 69.312 68.5364 70.32 68.2484 71.2C67.6884 72.928 66.3284 74.144 64.3924 74.144ZM64.5524 68.528C65.8484 68.528 66.6644 67.632 66.6644 66.4C66.6644 65.12 65.8324 64.24 64.5524 64.24C63.2884 64.24 62.4564 65.12 62.4564 66.384C62.4564 67.648 63.2244 68.528 64.5524 68.528Z" fill="#061A2A"/>
<path d="M34.96 167.032V167.096C36.192 167.576 36.8 168.488 36.8 169.832C36.8 171.896 35.248 173.128 32.816 173.144C30.384 173.128 28.832 171.896 28.832 169.832C28.832 168.488 29.44 167.576 30.672 167.096V167.032C29.664 166.552 29.168 165.736 29.168 164.568C29.168 163.672 29.504 162.952 30.16 162.424C30.832 161.896 31.712 161.624 32.816 161.608C33.92 161.624 34.8 161.896 35.456 162.424C36.128 162.952 36.464 163.672 36.464 164.568C36.464 165.736 35.968 166.552 34.96 167.032ZM31.024 164.744C31.024 165.688 31.728 166.312 32.816 166.312C33.904 166.312 34.608 165.688 34.608 164.744C34.608 163.784 33.952 163.208 32.816 163.208C31.68 163.208 31.024 163.784 31.024 164.744ZM32.816 171.544C34.176 171.528 34.928 170.856 34.928 169.72C34.928 168.632 34.208 167.928 32.816 167.912C31.424 167.928 30.704 168.632 30.704 169.72C30.704 170.856 31.456 171.528 32.816 171.544ZM41.993 173.144C40.953 173.144 40.105 172.856 39.449 172.296C38.793 171.72 38.425 170.984 38.313 170.104H40.121C40.249 170.952 40.953 171.496 41.993 171.496C43.657 171.496 44.505 170.056 44.505 167.768H44.441C43.881 168.632 43.017 169.064 41.865 169.064C40.729 169.064 39.849 168.712 39.193 167.992C38.537 167.272 38.217 166.424 38.217 165.416C38.217 164.312 38.569 163.416 39.289 162.696C40.009 161.976 40.969 161.608 42.169 161.608C43.561 161.608 44.585 162.104 45.257 163.112C45.945 164.104 46.281 165.464 46.281 167.176C46.281 168.312 46.137 169.32 45.849 170.2C45.289 171.928 43.929 173.144 41.993 173.144ZM42.153 167.528C43.449 167.528 44.265 166.632 44.265 165.4C44.265 164.12 43.433 163.24 42.153 163.24C40.889 163.24 40.057 164.12 40.057 165.384C40.057 166.648 40.825 167.528 42.153 167.528ZM48.8276 173.144C48.0756 173.144 47.6596 172.696 47.6596 171.976C47.6596 171.256 48.0756 170.808 48.8276 170.808C49.5476 170.808 49.9796 171.272 49.9796 171.976C49.9796 172.68 49.5476 173.144 48.8276 173.144ZM55.1343 173.144C54.0943 173.144 53.2463 172.856 52.5903 172.296C51.9343 171.72 51.5663 170.984 51.4543 170.104H53.2623C53.3903 170.952 54.0943 171.496 55.1343 171.496C56.7983 171.496 57.6463 170.056 57.6463 167.768H57.5823C57.0223 168.632 56.1583 169.064 55.0063 169.064C53.8703 169.064 52.9903 168.712 52.3343 167.992C51.6783 167.272 51.3583 166.424 51.3583 165.416C51.3583 164.312 51.7103 163.416 52.4303 162.696C53.1503 161.976 54.1103 161.608 55.3103 161.608C56.7023 161.608 57.7263 162.104 58.3983 163.112C59.0863 164.104 59.4223 165.464 59.4223 167.176C59.4223 168.312 59.2783 169.32 58.9903 170.2C58.4303 171.928 57.0703 173.144 55.1343 173.144ZM55.2943 167.528C56.5903 167.528 57.4063 166.632 57.4063 165.4C57.4063 164.12 56.5743 163.24 55.2943 163.24C54.0303 163.24 53.1983 164.12 53.1983 165.384C53.1983 166.648 53.9663 167.528 55.2943 167.528ZM60.9289 167.368C60.9289 165.592 61.2649 164.2 61.9209 163.16C62.5929 162.12 63.6329 161.608 65.0409 161.608C66.4489 161.608 67.4889 162.12 68.1449 163.16C68.8169 164.2 69.1529 165.592 69.1529 167.368C69.1529 169.144 68.8169 170.552 68.1449 171.592C67.4889 172.632 66.4489 173.144 65.0409 173.144C63.6329 173.144 62.5929 172.632 61.9209 171.592C61.2649 170.552 60.9289 169.144 60.9289 167.368ZM67.2809 167.368C67.2809 164.728 66.6889 163.24 65.0409 163.24C63.3929 163.24 62.8009 164.728 62.8009 167.368C62.8009 170.04 63.3769 171.512 65.0409 171.512C66.7049 171.512 67.2809 170.04 67.2809 167.368ZM73.1518 167.432C71.5358 167.432 70.6558 166.264 70.6558 164.52C70.6558 162.776 71.5358 161.608 73.1518 161.608C74.7518 161.608 75.6318 162.776 75.6318 164.52C75.6318 166.264 74.7518 167.432 73.1518 167.432ZM73.5358 173H71.9198V172.84L79.5038 161.8H81.0878V161.96L73.5358 173ZM73.1518 166.168C73.9038 166.168 74.2718 165.624 74.2718 164.52C74.2718 163.416 73.9038 162.872 73.1518 162.872C72.3998 162.872 72.0158 163.416 72.0158 164.52C72.0158 165.624 72.3998 166.168 73.1518 166.168ZM79.9358 167.32C81.5358 167.32 82.4318 168.488 82.4318 170.232C82.4318 171.976 81.5518 173.144 79.9358 173.144C78.3198 173.144 77.4398 171.976 77.4398 170.232C77.4398 168.488 78.3198 167.32 79.9358 167.32ZM78.8158 170.232C78.8158 171.336 79.1838 171.88 79.9358 171.88C80.6878 171.88 81.0558 171.336 81.0558 170.232C81.0558 169.128 80.6878 168.584 79.9358 168.584C79.1838 168.584 78.8158 169.128 78.8158 170.232Z" fill="#061A2A"/>
<path d="M30.296 89L28.24 83.48V83.4H28.968L30.648 88.064H30.68L32.336 83.4H33.072V83.48L31.008 89H30.296ZM34.3685 84.128C34.0565 84.128 33.9045 83.944 33.9045 83.656C33.9045 83.376 34.0565 83.192 34.3685 83.192C34.6725 83.192 34.8325 83.376 34.8325 83.656C34.8325 83.944 34.6725 84.128 34.3685 84.128ZM34.0325 89V84.912H34.7045V89H34.0325ZM37.5998 89.072C36.3918 89.072 35.7438 88.16 35.7438 86.96C35.7438 85.776 36.3278 84.84 37.5918 84.84C38.7438 84.84 39.3598 85.696 39.3598 86.832V87.16H36.4478C36.4478 87.936 36.8398 88.472 37.5998 88.472C38.1358 88.472 38.5198 88.248 38.6318 87.816H39.3038C39.1918 88.568 38.4718 89.072 37.5998 89.072ZM36.4558 86.6H38.6638C38.6638 85.952 38.3198 85.44 37.5918 85.44C36.8238 85.44 36.4798 85.96 36.4558 86.6ZM41.0778 89L39.9178 84.992V84.912H40.6138L41.4298 88.088H41.4618L42.4218 84.912H43.1098L44.0698 88.088H44.1018L44.9178 84.912H45.5978V84.992L44.4458 89H43.7498L42.7898 85.824H42.7578L41.7738 89H41.0778ZM48.0138 89.072C46.8058 89.072 46.1578 88.16 46.1578 86.96C46.1578 85.776 46.7418 84.84 48.0058 84.84C49.1578 84.84 49.7738 85.696 49.7738 86.832V87.16H46.8618C46.8618 87.936 47.2538 88.472 48.0138 88.472C48.5498 88.472 48.9338 88.248 49.0458 87.816H49.7178C49.6058 88.568 48.8858 89.072 48.0138 89.072ZM46.8698 86.6H49.0778C49.0778 85.952 48.7338 85.44 48.0058 85.44C47.2378 85.44 46.8938 85.96 46.8698 86.6ZM50.8919 89V84.912H51.4759L51.5319 85.6H51.5639C51.7319 85.144 52.1399 84.864 52.6439 84.864H53.0119V85.512H52.6919C51.9159 85.512 51.5639 86.056 51.5639 87.016V89H50.8919ZM55.3611 89.072C54.3931 89.072 53.7131 88.544 53.6891 87.648H54.3611C54.3611 88.192 54.7771 88.472 55.3611 88.472C55.9371 88.472 56.2971 88.28 56.2971 87.888C56.2971 87.616 56.1131 87.4 55.6731 87.304L54.8571 87.152C54.1851 87.016 53.8171 86.608 53.8171 86.008C53.8171 85.328 54.4011 84.84 55.3051 84.84C56.2251 84.84 56.8811 85.344 56.8811 86.16H56.2251C56.2011 85.64 55.8171 85.408 55.3051 85.408C54.8091 85.408 54.4651 85.608 54.4651 86.008C54.4651 86.328 54.7291 86.512 55.1771 86.584L55.8171 86.704C56.5851 86.88 56.9771 87.184 56.9771 87.888C56.9771 88.64 56.2411 89.072 55.3611 89.072Z" fill="#666D80"/>
<path d="M30.952 188.072C29.336 188.072 28.48 186.912 28.48 185.208C28.48 183.48 29.352 182.328 30.952 182.328C32.304 182.328 33.072 183.088 33.192 184.272H32.472C32.384 183.496 31.896 182.984 30.952 182.984C29.648 182.984 29.2 184.08 29.2 185.208C29.2 186.336 29.648 187.424 30.952 187.424C31.864 187.424 32.344 186.952 32.48 186.184H33.192C33.04 187.336 32.296 188.072 30.952 188.072ZM35.9199 188.072C34.6399 188.072 34.0719 187.136 34.0719 185.96C34.0719 184.784 34.6559 183.84 35.9199 183.84C37.1839 183.84 37.7679 184.784 37.7679 185.96C37.7679 187.128 37.1999 188.072 35.9199 188.072ZM35.9199 187.472C36.7519 187.472 37.0879 186.84 37.0879 185.96C37.0879 185.08 36.7519 184.44 35.9199 184.44C35.0879 184.44 34.7519 185.088 34.7519 185.96C34.7519 186.84 35.0959 187.472 35.9199 187.472ZM38.8841 188V183.912H39.4681L39.5241 184.552H39.5561C39.7721 184.136 40.1881 183.84 40.8201 183.84C41.7241 183.84 42.2521 184.408 42.2521 185.344V188H41.5801V185.448C41.5801 184.808 41.2841 184.44 40.6361 184.44C39.9561 184.44 39.5561 184.92 39.5561 185.744V188H38.8841ZM44.5414 188L42.9334 183.992V183.912H43.6294L44.8854 187.216H44.9174L46.1254 183.912H46.8214V183.992L45.2374 188H44.5414ZM49.1232 188.072C47.9152 188.072 47.2672 187.16 47.2672 185.96C47.2672 184.776 47.8512 183.84 49.1152 183.84C50.2672 183.84 50.8832 184.696 50.8832 185.832V186.16H47.9712C47.9712 186.936 48.3632 187.472 49.1232 187.472C49.6592 187.472 50.0432 187.248 50.1552 186.816H50.8272C50.7152 187.568 49.9952 188.072 49.1232 188.072ZM47.9792 185.6H50.1872C50.1872 184.952 49.8432 184.44 49.1152 184.44C48.3472 184.44 48.0032 184.96 47.9792 185.6ZM52.0013 188V183.912H52.5853L52.6413 184.6H52.6733C52.8413 184.144 53.2493 183.864 53.7533 183.864H54.1213V184.512H53.8013C53.0253 184.512 52.6733 185.056 52.6733 186.016V188H52.0013ZM56.4704 188.072C55.5024 188.072 54.8224 187.544 54.7984 186.648H55.4704C55.4704 187.192 55.8864 187.472 56.4704 187.472C57.0464 187.472 57.4064 187.28 57.4064 186.888C57.4064 186.616 57.2224 186.4 56.7824 186.304L55.9664 186.152C55.2944 186.016 54.9264 185.608 54.9264 185.008C54.9264 184.328 55.5104 183.84 56.4144 183.84C57.3344 183.84 57.9904 184.344 57.9904 185.16H57.3344C57.3104 184.64 56.9264 184.408 56.4144 184.408C55.9184 184.408 55.5744 184.608 55.5744 185.008C55.5744 185.328 55.8384 185.512 56.2864 185.584L56.9264 185.704C57.6944 185.88 58.0864 186.184 58.0864 186.888C58.0864 187.64 57.3504 188.072 56.4704 188.072ZM59.5404 183.128C59.2284 183.128 59.0764 182.944 59.0764 182.656C59.0764 182.376 59.2284 182.192 59.5404 182.192C59.8444 182.192 60.0044 182.376 60.0044 182.656C60.0044 182.944 59.8444 183.128 59.5404 183.128ZM59.2044 188V183.912H59.8764V188H59.2044ZM62.7636 188.072C61.4836 188.072 60.9156 187.136 60.9156 185.96C60.9156 184.784 61.4996 183.84 62.7636 183.84C64.0276 183.84 64.6116 184.784 64.6116 185.96C64.6116 187.128 64.0436 188.072 62.7636 188.072ZM62.7636 187.472C63.5956 187.472 63.9316 186.84 63.9316 185.96C63.9316 185.08 63.5956 184.44 62.7636 184.44C61.9316 184.44 61.5956 185.088 61.5956 185.96C61.5956 186.84 61.9396 187.472 62.7636 187.472ZM65.7278 188V183.912H66.3118L66.3678 184.552H66.3998C66.6158 184.136 67.0318 183.84 67.6638 183.84C68.5678 183.84 69.0958 184.408 69.0958 185.344V188H68.4238V185.448C68.4238 184.808 68.1278 184.44 67.4798 184.44C66.7998 184.44 66.3998 184.92 66.3998 185.744V188H65.7278ZM71.8064 188.072C70.8384 188.072 70.1584 187.544 70.1344 186.648H70.8064C70.8064 187.192 71.2224 187.472 71.8064 187.472C72.3824 187.472 72.7424 187.28 72.7424 186.888C72.7424 186.616 72.5584 186.4 72.1184 186.304L71.3024 186.152C70.6304 186.016 70.2624 185.608 70.2624 185.008C70.2624 184.328 70.8464 183.84 71.7504 183.84C72.6704 183.84 73.3264 184.344 73.3264 185.16H72.6704C72.6464 184.64 72.2624 184.408 71.7504 184.408C71.2544 184.408 70.9104 184.608 70.9104 185.008C70.9104 185.328 71.1744 185.512 71.6224 185.584L72.2624 185.704C73.0304 185.88 73.4224 186.184 73.4224 186.888C73.4224 187.64 72.6864 188.072 71.8064 188.072Z" fill="#666D80"/>
<rect x="114" y="75" width="33" height="16" rx="8" fill="#F9F9FA"/>
<path d="M119.6 85.44V83.784H118.04V83.208H119.6V81.552H120.24V83.208H121.768V83.784H120.24V85.44H119.6ZM123.485 86V81.16H123.453L122.165 82.168H122.085V81.48L123.477 80.4H124.165V86H123.485ZM125.419 86V85.472L127.331 83.24C127.907 82.568 128.131 82.312 128.131 81.84C128.131 81.296 127.803 80.912 127.131 80.912C126.475 80.912 126.083 81.288 126.083 81.968H125.403C125.403 80.992 126.035 80.304 127.131 80.304C128.195 80.304 128.827 80.96 128.827 81.816C128.827 82.44 128.491 82.856 127.795 83.664L126.347 85.344V85.376H128.915V86H125.419ZM130.23 86.072C129.918 86.072 129.758 85.872 129.758 85.584C129.758 85.304 129.918 85.104 130.23 85.104C130.534 85.104 130.702 85.304 130.702 85.584C130.702 85.872 130.534 86.072 130.23 86.072ZM133.432 86.072C132.312 86.072 131.584 85.424 131.584 84.448H132.256C132.264 85.024 132.664 85.472 133.424 85.472C134.168 85.472 134.584 85.056 134.584 84.432C134.584 83.76 134.128 83.384 133.344 83.384H132.856V82.784H133.328C133.968 82.784 134.408 82.4 134.408 81.824C134.408 81.32 134.104 80.904 133.408 80.904C132.696 80.904 132.36 81.304 132.336 81.88H131.656C131.704 80.896 132.344 80.304 133.432 80.304C134.392 80.304 135.112 80.872 135.112 81.776C135.112 82.4 134.832 82.784 134.272 83V83.032C134.928 83.24 135.288 83.752 135.288 84.424C135.288 85.352 134.624 86.072 133.432 86.072ZM137.42 83.216C136.588 83.216 136.244 82.584 136.244 81.76C136.244 80.936 136.588 80.304 137.42 80.304C138.244 80.304 138.596 80.936 138.596 81.76C138.596 82.584 138.252 83.216 137.42 83.216ZM136.892 86V85.92L140.684 80.4H141.3V80.48L137.524 86H136.892ZM137.42 82.704C137.868 82.704 138.028 82.328 138.028 81.76C138.028 81.192 137.868 80.816 137.42 80.816C136.972 80.816 136.812 81.192 136.812 81.76C136.812 82.328 136.972 82.704 137.42 82.704ZM140.78 86.072C139.948 86.072 139.604 85.44 139.604 84.616C139.604 83.792 139.948 83.16 140.78 83.16C141.604 83.16 141.956 83.792 141.956 84.616C141.956 85.44 141.612 86.072 140.78 86.072ZM140.78 85.56C141.228 85.56 141.388 85.184 141.388 84.616C141.388 84.048 141.228 83.672 140.78 83.672C140.332 83.672 140.172 84.048 140.172 84.616C140.172 85.184 140.332 85.56 140.78 85.56Z" fill="#666D80"/>
<rect x="117" y="173" width="30" height="16" rx="8" fill="#F9F9FA"/>
<path d="M122.6 183.44V181.784H121.04V181.208H122.6V179.552H123.24V181.208H124.768V181.784H123.24V183.44H122.6ZM126.485 184V179.16H126.453L125.165 180.168H125.085V179.48L126.477 178.4H127.165V184H126.485ZM130.395 184.072C128.947 184.072 128.443 182.856 128.443 181.184C128.443 179.52 128.947 178.304 130.395 178.304C131.843 178.304 132.347 179.52 132.347 181.184C132.347 182.856 131.843 184.072 130.395 184.072ZM130.395 183.464C131.411 183.464 131.651 182.408 131.651 181.184C131.651 179.968 131.403 178.912 130.395 178.912C129.387 178.912 129.139 179.968 129.139 181.184C129.139 182.408 129.379 183.464 130.395 183.464ZM134.587 184V179.16H134.555L133.267 180.168H133.187V179.48L134.579 178.4H135.267V184H134.587ZM137.721 181.216C136.889 181.216 136.545 180.584 136.545 179.76C136.545 178.936 136.889 178.304 137.721 178.304C138.545 178.304 138.897 178.936 138.897 179.76C138.897 180.584 138.553 181.216 137.721 181.216ZM137.193 184V183.92L140.985 178.4H141.601V178.48L137.825 184H137.193ZM137.721 180.704C138.169 180.704 138.329 180.328 138.329 179.76C138.329 179.192 138.169 178.816 137.721 178.816C137.273 178.816 137.113 179.192 137.113 179.76C137.113 180.328 137.273 180.704 137.721 180.704ZM141.081 184.072C140.249 184.072 139.905 183.44 139.905 182.616C139.905 181.792 140.249 181.16 141.081 181.16C141.905 181.16 142.257 181.792 142.257 182.616C142.257 183.44 141.913 184.072 141.081 184.072ZM141.081 183.56C141.529 183.56 141.689 183.184 141.689 182.616C141.689 182.048 141.529 181.672 141.081 181.672C140.633 181.672 140.473 182.048 140.473 182.616C140.473 183.184 140.633 183.56 141.081 183.56Z" fill="#666D80"/>
<defs>
<filter id="filter0_di_140_1526" x="20.5" y="20.4998" width="35" height="35.0003" filterUnits="userSpaceOnUse" color-interpolation-filters="sRGB">
<feFlood flood-opacity="0" result="BackgroundImageFix"/>
<feColorMatrix in="SourceAlpha" type="matrix" values="0 0 0 0 0 0 0 0 0 0 0 0 0 0 0 0 0 0 127 0" result="hardAlpha"/>
<feOffset/>
<feGaussianBlur stdDeviation="3.33333"/>
<feComposite in2="hardAlpha" operator="out"/>
<feColorMatrix type="matrix" values="0 0 0 0 0.0235294 0 0 0 0 0.101961 0 0 0 0 0.164706 0 0 0 0.12 0"/>
<feBlend mode="normal" in2="BackgroundImageFix" result="effect1_dropShadow_140_1526"/>
<feBlend mode="normal" in="SourceGraphic" in2="effect1_dropShadow_140_1526" result="shape"/>
<feColorMatrix in="SourceAlpha" type="matrix" values="0 0 0 0 0 0 0 0 0 0 0 0 0 0 0 0 0 0 127 0" result="hardAlpha"/>
<feOffset/>
<feGaussianBlur stdDeviation="1.66667"/>
<feComposite in2="hardAlpha" operator="arithmetic" k2="-1" k3="1"/>
<feColorMatrix type="matrix" values="0 0 0 0 0.0235294 0 0 0 0 0.101961 0 0 0 0 0.164706 0 0 0 0.15 0"/>
<feBlend mode="normal" in2="shape" result="effect2_innerShadow_140_1526"/>
</filter>
<filter id="filter1_di_140_1526" x="20.5" y="119.5" width="35" height="34.9998" filterUnits="userSpaceOnUse" color-interpolation-filters="sRGB">
<feFlood flood-opacity="0" result="BackgroundImageFix"/>
<feColorMatrix in="SourceAlpha" type="matrix" values="0 0 0 0 0 0 0 0 0 0 0 0 0 0 0 0 0 0 127 0" result="hardAlpha"/>
<feOffset/>
<feGaussianBlur stdDeviation="3.33333"/>
<feComposite in2="hardAlpha" operator="out"/>
<feColorMatrix type="matrix" values="0 0 0 0 0.0235294 0 0 0 0 0.101961 0 0 0 0 0.164706 0 0 0 0.12 0"/>
<feBlend mode="normal" in2="BackgroundImageFix" result="effect1_dropShadow_140_1526"/>
<feBlend mode="normal" in="SourceGraphic" in2="effect1_dropShadow_140_1526" result="shape"/>
<feColorMatrix in="SourceAlpha" type="matrix" values="0 0 0 0 0 0 0 0 0 0 0 0 0 0 0 0 0 0 127 0" result="hardAlpha"/>
<feOffset/>
<feGaussianBlur stdDeviation="1.66667"/>
<feComposite in2="hardAlpha" operator="arithmetic" k2="-1" k3="1"/>
<feColorMatrix type="matrix" values="0 0 0 0 0.0235294 0 0 0 0 0.101961 0 0 0 0 0.164706 0 0 0 0.15 0"/>
<feBlend mode="normal" in2="shape" result="effect2_innerShadow_140_1526"/>
</filter>
<radialGradient id="paint0_radial_140_1526" cx="0" cy="0" r="1" gradientUnits="userSpaceOnUse" gradientTransform="translate(24.25 11.3333) rotate(62.7232) scale(30.0029)">
<stop stop-color="white"/>
<stop offset="1" stop-color="#5B49E9"/>
</radialGradient>
<radialGradient id="paint1_radial_140_1526" cx="0" cy="0" r="1" gradientUnits="userSpaceOnUse" gradientTransform="translate(24.25 110.333) rotate(62.7232) scale(30.0029)">
<stop stop-color="white"/>
<stop offset="1" stop-color="#5B49E9"/>
</radialGradient>
</defs>
</svg>
