<svg width="350" height="140" viewBox="0 0 350 140" fill="none" xmlns="http://www.w3.org/2000/svg">
<rect width="350" height="140" rx="12" fill="white"/>
<circle cx="16" cy="16" r="4" fill="#FB7185"/>
<circle cx="30" cy="16" r="4" fill="#FACC15"/>
<circle cx="44" cy="16" r="4" fill="#4ADE80"/>
<rect x="12" y="32" width="326" height="44" rx="8" fill="#F9F9FA"/>
<rect x="12" y="84" width="326" height="44" rx="8" fill="#F9F9FA"/>
<path d="M23 58.84H35V46.84H23V58.84ZM41.5981 58.1406C39.5005 58.1406 38.1352 56.834 38.1352 55.0117V49.2695H39.4302V54.9062C39.4302 56.1016 40.2563 56.9629 41.5981 56.9629C42.9458 56.9629 43.772 56.1016 43.772 54.9062V49.2695H45.0669V55.0117C45.0669 56.834 43.6958 58.1406 41.5981 58.1406ZM48.5769 58.1465C47.1589 58.1465 46.0808 57.4609 45.9929 56.1191H47.2116C47.282 56.7871 47.7507 57.1621 48.5534 57.1621C49.3386 57.1621 49.8249 56.8047 49.8249 56.3125C49.8249 55.8906 49.4675 55.6445 48.9343 55.5273L47.9089 55.2988C46.7429 55.041 46.1335 54.4492 46.1335 53.5293C46.1335 52.4336 47.0827 51.6777 48.5007 51.6777C49.8952 51.6777 50.8913 52.4512 50.9265 53.6992H49.7429C49.7312 53.0957 49.2507 52.6562 48.5183 52.6562C47.8152 52.6562 47.3698 53.0312 47.3698 53.5059C47.3698 53.9219 47.7038 54.1738 48.2605 54.3027L49.3152 54.5371C50.5222 54.8066 51.073 55.3457 51.073 56.2422C51.073 57.4199 50.0183 58.1465 48.5769 58.1465ZM54.5713 58.1406C52.7373 58.1406 51.624 56.7871 51.624 54.918C51.624 53.0312 52.8193 51.6719 54.5068 51.6719C56.2588 51.6719 57.3955 52.9961 57.3955 54.9062V55.2402H52.8427C52.8838 56.3535 53.5048 57.1094 54.5888 57.1094C55.3974 57.1094 55.9365 56.7051 56.1123 56.1191H57.3017C57.0732 57.3145 55.9716 58.1406 54.5713 58.1406ZM52.8545 54.3027H56.1884C56.0888 53.3184 55.456 52.7031 54.5185 52.7031C53.5869 52.7031 52.9599 53.3184 52.8545 54.3027ZM58.2277 58V51.8125H59.4113V52.8145H59.4348C59.6633 52.1406 60.1437 51.7363 60.9289 51.7363C61.1164 51.7363 61.2805 51.7539 61.3801 51.7656V52.9199C61.2863 52.9023 61.0168 52.8613 60.7297 52.8613C60.0324 52.8613 59.4641 53.3359 59.4641 54.3438V58H58.2277ZM64.3569 58.1465C62.9389 58.1465 61.8608 57.4609 61.7729 56.1191H62.9916C63.062 56.7871 63.5307 57.1621 64.3334 57.1621C65.1186 57.1621 65.6049 56.8047 65.6049 56.3125C65.6049 55.8906 65.2475 55.6445 64.7143 55.5273L63.6889 55.2988C62.5229 55.041 61.9135 54.4492 61.9135 53.5293C61.9135 52.4336 62.8627 51.6777 64.2807 51.6777C65.6752 51.6777 66.6713 52.4512 66.7065 53.6992H65.5229C65.5112 53.0957 65.0307 52.6562 64.2983 52.6562C63.5952 52.6562 63.1498 53.0312 63.1498 53.5059C63.1498 53.9219 63.4838 54.1738 64.0405 54.3027L65.0952 54.5371C66.3022 54.8066 66.853 55.3457 66.853 56.2422C66.853 57.4199 65.7983 58.1465 64.3569 58.1465ZM71.5644 54.4375V58H70.328V51.8125H71.5409V52.7441C71.9628 52.041 72.5956 51.6895 73.4101 51.6895C74.6816 51.6895 75.6484 52.5273 75.6484 54.1445V58H74.412V54.2969C74.412 53.3066 73.914 52.7969 73.0585 52.7969C72.2148 52.7969 71.5644 53.2891 71.5644 54.4375ZM79.4455 58.1406C77.6115 58.1406 76.4982 56.7871 76.4982 54.918C76.4982 53.0312 77.6935 51.6719 79.381 51.6719C81.133 51.6719 82.2697 52.9961 82.2697 54.9062V55.2402H77.717C77.758 56.3535 78.3791 57.1094 79.463 57.1094C80.2716 57.1094 80.8107 56.7051 80.9865 56.1191H82.1759C81.9474 57.3145 80.8459 58.1406 79.4455 58.1406ZM77.7287 54.3027H81.0627C80.963 53.3184 80.3302 52.7031 79.3927 52.7031C78.4611 52.7031 77.8341 53.3184 77.7287 54.3027ZM84.2621 58L82.3461 51.8125H83.641L84.35 54.3438C84.5551 55.0938 84.7426 55.8848 84.9359 56.6523C85.1352 55.8848 85.3344 55.0938 85.5395 54.3438L86.2602 51.8125H87.4379L88.1469 54.3438C88.3578 55.082 88.5453 55.873 88.7445 56.6289C88.9379 55.873 89.1254 55.0879 89.3305 54.3438L90.0453 51.8125H91.352L89.4359 58H88.1469L87.3617 55.3047C87.1859 54.6777 87.0219 54.0156 86.852 53.3652C86.682 54.0156 86.5121 54.6777 86.3305 55.3047L85.5336 58H84.2621ZM93.192 49.2695V58H91.9557V49.2695H93.192ZM94.5048 60.4492V59.4062H95.1727C95.5595 59.4062 95.788 59.1953 95.9755 58.6914L96.2567 57.959L93.8661 51.8125H95.1903L96.4266 55.2051C96.5907 55.668 96.743 56.1309 96.8954 56.5938C97.0477 56.1309 97.2059 55.668 97.37 55.2051L98.5888 51.8125H99.8954L97.0829 59.084C96.7372 59.9805 96.1278 60.4492 95.2899 60.4492H94.5048ZM105.779 58.1406C104.009 58.1406 102.814 56.8223 102.814 54.918C102.814 53.002 104.009 51.6719 105.779 51.6719C107.548 51.6719 108.738 53.002 108.738 54.918C108.738 56.8223 107.548 58.1406 105.779 58.1406ZM105.779 57.0742C106.839 57.0742 107.49 56.2305 107.49 54.918C107.49 53.5879 106.833 52.7383 105.779 52.7383C104.724 52.7383 104.068 53.5879 104.068 54.918C104.068 56.2363 104.718 57.0742 105.779 57.0742ZM110.83 54.4375V58H109.593V51.8125H110.806V52.7441C111.228 52.041 111.861 51.6895 112.675 51.6895C113.947 51.6895 114.914 52.5273 114.914 54.1445V58H113.677V54.2969C113.677 53.3066 113.179 52.7969 112.324 52.7969C111.48 52.7969 110.83 53.2891 110.83 54.4375ZM119.209 58.123C118.4 58.123 117.709 57.7773 117.293 57.0566H117.281V58H116.068V49.2695H117.305V52.709H117.316C117.715 52.0234 118.412 51.6895 119.215 51.6895C120.814 51.6895 121.892 52.9961 121.892 54.9062C121.892 56.8223 120.82 58.123 119.209 58.123ZM118.957 57.0566C119.953 57.0566 120.639 56.3008 120.639 54.9062C120.639 53.5059 119.953 52.75 118.957 52.75C117.902 52.75 117.223 53.6055 117.223 54.9062C117.223 56.207 117.902 57.0566 118.957 57.0566ZM125.402 58.1406C123.633 58.1406 122.438 56.8223 122.438 54.918C122.438 53.002 123.633 51.6719 125.402 51.6719C127.172 51.6719 128.361 53.002 128.361 54.918C128.361 56.8223 127.172 58.1406 125.402 58.1406ZM125.402 57.0742C126.463 57.0742 127.113 56.2305 127.113 54.918C127.113 53.5879 126.457 52.7383 125.402 52.7383C124.348 52.7383 123.691 53.5879 123.691 54.918C123.691 56.2363 124.342 57.0742 125.402 57.0742ZM131.174 58.0996C129.944 58.0996 129.03 57.4668 129.03 56.2305C129.03 54.8184 130.213 54.5137 131.473 54.3672C132.633 54.2266 133.02 54.2383 133.02 53.7871V53.7344C133.02 53.1367 132.557 52.7031 131.772 52.7031C130.981 52.7031 130.442 53.1309 130.395 53.6992H129.182C129.241 52.5215 130.243 51.6895 131.789 51.6895C133.313 51.6895 134.244 52.498 134.244 53.7578V58H133.026V57.1211H133.002C132.744 57.6191 132.241 58.0996 131.174 58.0996ZM131.426 57.1035C132.516 57.1035 133.026 56.4473 133.026 55.6855V54.959C132.856 55.0938 132.2 55.1934 131.543 55.2871C130.869 55.3867 130.26 55.627 130.26 56.2539C130.26 56.7871 130.705 57.1035 131.426 57.1035ZM135.399 58V51.8125H136.583V52.8145H136.606C136.835 52.1406 137.315 51.7363 138.1 51.7363C138.288 51.7363 138.452 51.7539 138.551 51.7656V52.9199C138.458 52.9023 138.188 52.8613 137.901 52.8613C137.204 52.8613 136.635 53.3359 136.635 54.3438V58H135.399ZM141.522 58.123C139.911 58.123 138.839 56.8223 138.839 54.9062C138.839 52.9961 139.917 51.6895 141.516 51.6895C142.319 51.6895 143.016 52.0234 143.415 52.709H143.427V49.2695H144.663V58H143.45V57.0566H143.438C143.022 57.7773 142.331 58.123 141.522 58.123ZM141.774 57.0566C142.829 57.0566 143.509 56.207 143.509 54.9062C143.509 53.6055 142.829 52.75 141.774 52.75C140.778 52.75 140.093 53.5059 140.093 54.9062C140.093 56.3008 140.778 57.0566 141.774 57.0566ZM148.46 58.1406C146.626 58.1406 145.513 56.7871 145.513 54.918C145.513 53.0312 146.708 51.6719 148.396 51.6719C150.147 51.6719 151.284 52.9961 151.284 54.9062V55.2402H146.731C146.772 56.3535 147.394 57.1094 148.478 57.1094C149.286 57.1094 149.825 56.7051 150.001 56.1191H151.19C150.962 57.3145 149.86 58.1406 148.46 58.1406ZM146.743 54.3027H150.077C149.978 53.3184 149.345 52.7031 148.407 52.7031C147.476 52.7031 146.849 53.3184 146.743 54.3027ZM154.495 58.123C152.884 58.123 151.812 56.8223 151.812 54.9062C151.812 52.9961 152.89 51.6895 154.49 51.6895C155.292 51.6895 155.99 52.0234 156.388 52.709H156.4V49.2695H157.636V58H156.423V57.0566H156.411C155.995 57.7773 155.304 58.123 154.495 58.123ZM154.747 57.0566C155.802 57.0566 156.482 56.207 156.482 54.9062C156.482 53.6055 155.802 52.75 154.747 52.75C153.751 52.75 153.066 53.5059 153.066 54.9062C153.066 56.3008 153.751 57.0566 154.747 57.0566Z" fill="#061A2A"/>
<path d="M23 110.84H35V98.84H23V110.84ZM38.1763 110V101.27H40.0102L41.9673 106.385C42.1255 106.83 42.4126 107.656 42.6118 108.26C42.811 107.656 43.0981 106.83 43.2505 106.385L45.1782 101.27H47.018V110H45.7407V105.242C45.7407 104.621 45.7641 103.73 45.7817 102.904C45.4595 103.854 45.1606 104.744 44.9731 105.242L43.1333 110H42.0669L40.2095 105.242C40.0278 104.762 39.7348 103.93 39.4184 103.027C39.436 103.818 39.4595 104.65 39.4595 105.242V110H38.1763ZM50.1648 110.1C48.9343 110.1 48.0202 109.467 48.0202 108.23C48.0202 106.818 49.2038 106.514 50.4636 106.367C51.6238 106.227 52.0105 106.238 52.0105 105.787V105.734C52.0105 105.137 51.5476 104.703 50.7624 104.703C49.9714 104.703 49.4323 105.131 49.3855 105.699H48.1726C48.2312 104.521 49.2331 103.689 50.78 103.689C52.3034 103.689 53.2351 104.498 53.2351 105.758V110H52.0163V109.121H51.9929C51.7351 109.619 51.2312 110.1 50.1648 110.1ZM50.4167 109.104C51.5066 109.104 52.0163 108.447 52.0163 107.686V106.959C51.8464 107.094 51.1902 107.193 50.5339 107.287C49.8601 107.387 49.2507 107.627 49.2507 108.254C49.2507 108.787 49.696 109.104 50.4167 109.104ZM56.7685 110.123C55.1572 110.123 54.0849 108.822 54.0849 106.906C54.0849 104.996 55.163 103.689 56.7627 103.689C57.5654 103.689 58.2627 104.023 58.6611 104.709H58.6728V101.27H59.9091V110H58.6963V109.057H58.6845C58.2685 109.777 57.5771 110.123 56.7685 110.123ZM57.0205 109.057C58.0752 109.057 58.7548 108.207 58.7548 106.906C58.7548 105.605 58.0752 104.75 57.0205 104.75C56.0244 104.75 55.3388 105.506 55.3388 106.906C55.3388 108.301 56.0244 109.057 57.0205 109.057ZM63.7062 110.141C61.8723 110.141 60.759 108.787 60.759 106.918C60.759 105.031 61.9543 103.672 63.6418 103.672C65.3937 103.672 66.5305 104.996 66.5305 106.906V107.24H61.9777C62.0187 108.354 62.6398 109.109 63.7238 109.109C64.5324 109.109 65.0715 108.705 65.2473 108.119H66.4367C66.2082 109.314 65.1066 110.141 63.7062 110.141ZM61.9895 106.303H65.3234C65.2238 105.318 64.591 104.703 63.6535 104.703C62.7219 104.703 62.0949 105.318 61.9895 106.303ZM71.8688 110.1C70.6384 110.1 69.7243 109.467 69.7243 108.23C69.7243 106.818 70.9079 106.514 72.1677 106.367C73.3278 106.227 73.7145 106.238 73.7145 105.787V105.734C73.7145 105.137 73.2516 104.703 72.4665 104.703C71.6755 104.703 71.1364 105.131 71.0895 105.699H69.8766C69.9352 104.521 70.9372 103.689 72.4841 103.689C74.0075 103.689 74.9391 104.498 74.9391 105.758V110H73.7204V109.121H73.697C73.4391 109.619 72.9352 110.1 71.8688 110.1ZM72.1208 109.104C73.2106 109.104 73.7204 108.447 73.7204 107.686V106.959C73.5505 107.094 72.8942 107.193 72.238 107.287C71.5641 107.387 70.9548 107.627 70.9548 108.254C70.9548 108.787 71.4001 109.104 72.1208 109.104ZM77.33 106.438V110H76.0937V103.812H77.3066V104.744C77.7284 104.041 78.3613 103.689 79.1757 103.689C80.4472 103.689 81.414 104.527 81.414 106.145V110H80.1777V106.297C80.1777 105.307 79.6796 104.797 78.8241 104.797C77.9804 104.797 77.33 105.289 77.33 106.438ZM85.1879 112.449V103.812H86.4008V104.703H86.4184C86.8109 104.023 87.5316 103.689 88.3344 103.689C89.934 103.689 91.0121 104.996 91.0121 106.906C91.0121 108.822 89.9398 110.123 88.3285 110.123C87.5199 110.123 86.8578 109.777 86.4418 109.068H86.4242V112.449H85.1879ZM88.0766 109.057C89.0727 109.057 89.7582 108.301 89.7582 106.906C89.7582 105.506 89.0727 104.75 88.0766 104.75C87.0219 104.75 86.3422 105.605 86.3422 106.906C86.3422 108.207 87.0219 109.057 88.0766 109.057ZM94.1002 110.123C92.8288 110.123 91.862 109.285 91.862 107.668V103.812H93.0983V107.516C93.0983 108.506 93.5963 109.016 94.4577 109.016C95.2955 109.016 95.9459 108.523 95.9459 107.375V103.812H97.1823V110H95.9694V109.068C95.5475 109.771 94.9205 110.123 94.1002 110.123ZM98.3368 110V103.812H99.5204V104.814H99.5438C99.7723 104.141 100.253 103.736 101.038 103.736C101.225 103.736 101.39 103.754 101.489 103.766V104.92C101.395 104.902 101.126 104.861 100.839 104.861C100.141 104.861 99.5731 105.336 99.5731 106.344V110H98.3368ZM104.73 110.141C102.96 110.141 101.776 108.811 101.776 106.918C101.776 105.014 102.966 103.672 104.73 103.672C106.206 103.672 107.284 104.615 107.437 105.928H106.206C106.077 105.23 105.573 104.738 104.735 104.738C103.669 104.738 103.03 105.594 103.03 106.918C103.03 108.23 103.663 109.074 104.735 109.074C105.585 109.074 106.025 108.6 106.189 107.879H107.437C107.296 109.168 106.206 110.141 104.73 110.141ZM109.488 106.438V110H108.251V101.27H109.488V104.703C109.91 104.029 110.531 103.689 111.333 103.689C112.605 103.689 113.572 104.527 113.572 106.145V110H112.335V106.297C112.335 105.307 111.837 104.797 110.982 104.797C110.138 104.797 109.488 105.289 109.488 106.438ZM116.613 110.1C115.382 110.1 114.468 109.467 114.468 108.23C114.468 106.818 115.652 106.514 116.912 106.367C118.072 106.227 118.459 106.238 118.459 105.787V105.734C118.459 105.137 117.996 104.703 117.211 104.703C116.42 104.703 115.88 105.131 115.834 105.699H114.621C114.679 104.521 115.681 103.689 117.228 103.689C118.752 103.689 119.683 104.498 119.683 105.758V110H118.464V109.121H118.441C118.183 109.619 117.679 110.1 116.613 110.1ZM116.865 109.104C117.955 109.104 118.464 108.447 118.464 107.686V106.959C118.295 107.094 117.638 107.193 116.982 107.287C116.308 107.387 115.699 107.627 115.699 108.254C115.699 108.787 116.144 109.104 116.865 109.104ZM123.129 110.146C121.711 110.146 120.633 109.461 120.545 108.119H121.764C121.834 108.787 122.303 109.162 123.105 109.162C123.89 109.162 124.377 108.805 124.377 108.312C124.377 107.891 124.019 107.645 123.486 107.527L122.461 107.299C121.295 107.041 120.685 106.449 120.685 105.529C120.685 104.434 121.635 103.678 123.053 103.678C124.447 103.678 125.443 104.451 125.478 105.699H124.295C124.283 105.096 123.803 104.656 123.07 104.656C122.367 104.656 121.922 105.031 121.922 105.506C121.922 105.922 122.256 106.174 122.812 106.303L123.867 106.537C125.074 106.807 125.625 107.346 125.625 108.242C125.625 109.42 124.57 110.146 123.129 110.146ZM129.123 110.141C127.289 110.141 126.176 108.787 126.176 106.918C126.176 105.031 127.371 103.672 129.059 103.672C130.811 103.672 131.947 104.996 131.947 106.906V107.24H127.395C127.436 108.354 128.057 109.109 129.141 109.109C129.949 109.109 130.488 108.705 130.664 108.119H131.854C131.625 109.314 130.524 110.141 129.123 110.141ZM127.406 106.303H130.74C130.641 105.318 130.008 104.703 129.07 104.703C128.139 104.703 127.512 105.318 127.406 106.303Z" fill="#828C95"/>
<path d="M267.474 58V57.208L270.342 53.86C271.206 52.852 271.542 52.468 271.542 51.76C271.542 50.944 271.05 50.368 270.042 50.368C269.058 50.368 268.47 50.932 268.47 51.952H267.45C267.45 50.488 268.398 49.456 270.042 49.456C271.638 49.456 272.586 50.44 272.586 51.724C272.586 52.66 272.082 53.284 271.038 54.496L268.866 57.016V57.064H272.718V58H267.474ZM280.064 58.108C278.456 58.108 277.472 56.908 277.46 54.928C277.472 53.116 278.336 51.76 280.064 51.76C280.976 51.76 281.588 52.18 281.912 52.72H281.96V49.12H282.968V58H282.092L281.96 57.148H281.912C281.588 57.688 280.976 58.108 280.064 58.108ZM280.232 57.208C281.456 57.208 281.984 56.152 281.984 54.928C281.984 53.716 281.456 52.66 280.232 52.66C278.96 52.66 278.48 53.704 278.48 54.928C278.48 56.164 278.96 57.208 280.232 57.208ZM286.542 58.108C285.21 58.108 284.406 57.28 284.406 56.212C284.406 55.18 285.138 54.292 286.938 54.292C287.586 54.292 288.066 54.4 288.45 54.508V53.896C288.45 53.212 288.03 52.624 287.034 52.624C286.134 52.624 285.69 53.128 285.678 53.716H284.706C284.706 52.54 285.69 51.76 287.034 51.76C288.606 51.76 289.434 52.708 289.434 53.872V58H288.582L288.51 57.136H288.462C288.09 57.76 287.406 58.108 286.542 58.108ZM286.722 57.268C287.766 57.268 288.45 56.512 288.45 55.624V55.312C287.946 55.156 287.478 55.096 286.938 55.096C285.942 55.096 285.426 55.48 285.426 56.2C285.426 56.812 285.834 57.268 286.722 57.268ZM291.823 60.748V60.628L292.867 57.952L292.855 57.928L290.395 51.988V51.868H291.475L293.335 56.68H293.383L295.183 51.868H296.239V51.988L292.843 60.748H291.823ZM299.471 58.108C298.019 58.108 296.999 57.316 296.963 55.972H297.971C297.971 56.788 298.595 57.208 299.471 57.208C300.335 57.208 300.875 56.92 300.875 56.332C300.875 55.924 300.599 55.6 299.939 55.456L298.715 55.228C297.707 55.024 297.155 54.412 297.155 53.512C297.155 52.492 298.031 51.76 299.387 51.76C300.767 51.76 301.751 52.516 301.751 53.74H300.767C300.731 52.96 300.155 52.612 299.387 52.612C298.643 52.612 298.127 52.912 298.127 53.512C298.127 53.992 298.523 54.268 299.195 54.376L300.155 54.556C301.307 54.82 301.895 55.276 301.895 56.332C301.895 57.46 300.791 58.108 299.471 58.108ZM308.585 58.108C307.253 58.108 306.449 57.28 306.449 56.212C306.449 55.18 307.181 54.292 308.981 54.292C309.629 54.292 310.109 54.4 310.493 54.508V53.896C310.493 53.212 310.073 52.624 309.077 52.624C308.177 52.624 307.733 53.128 307.721 53.716H306.749C306.749 52.54 307.733 51.76 309.077 51.76C310.649 51.76 311.477 52.708 311.477 53.872V58H310.625L310.553 57.136H310.505C310.133 57.76 309.449 58.108 308.585 58.108ZM308.765 57.268C309.809 57.268 310.493 56.512 310.493 55.624V55.312C309.989 55.156 309.521 55.096 308.981 55.096C307.985 55.096 307.469 55.48 307.469 56.2C307.469 56.812 307.877 57.268 308.765 57.268ZM315.711 60.856C314.139 60.856 313.131 59.956 313.095 58.78H314.067C314.115 59.368 314.583 59.992 315.711 59.992C316.887 59.992 317.415 59.26 317.415 58.336V57.148H317.367C317.043 57.688 316.431 58.108 315.519 58.108C313.791 58.108 312.927 56.752 312.915 54.94C312.927 52.96 313.911 51.76 315.519 51.76C316.431 51.76 317.043 52.18 317.367 52.72H317.415L317.547 51.868H318.423V58.36C318.423 59.764 317.463 60.856 315.711 60.856ZM315.687 57.208C316.911 57.208 317.439 56.152 317.439 54.94C317.439 53.716 316.911 52.66 315.687 52.66C314.415 52.66 313.935 53.704 313.935 54.94C313.935 56.164 314.415 57.208 315.687 57.208ZM322.634 58.108C320.714 58.108 319.862 56.704 319.862 54.94C319.862 53.176 320.738 51.76 322.634 51.76C324.53 51.76 325.406 53.176 325.406 54.94C325.406 56.692 324.554 58.108 322.634 58.108ZM322.634 57.208C323.882 57.208 324.386 56.26 324.386 54.94C324.386 53.62 323.882 52.66 322.634 52.66C321.386 52.66 320.882 53.632 320.882 54.94C320.882 56.26 321.398 57.208 322.634 57.208Z" fill="#515F6A"/>
<path d="M269.929 110.108C268.213 110.108 267.157 109.028 267.157 107.624H268.177C268.177 108.488 268.813 109.196 269.929 109.196C271.201 109.196 271.693 108.38 271.693 107.288C271.693 106.232 271.153 105.416 269.941 105.416C269.137 105.416 268.681 105.8 268.357 106.244H267.301L267.625 101.6H272.329V102.524H268.513L268.321 105.2H268.369C268.681 104.864 269.209 104.516 270.097 104.516C271.789 104.516 272.725 105.692 272.725 107.252C272.725 108.944 271.813 110.108 269.929 110.108ZM280.064 110.108C278.456 110.108 277.472 108.908 277.46 106.928C277.472 105.116 278.336 103.76 280.064 103.76C280.976 103.76 281.588 104.18 281.912 104.72H281.96V101.12H282.968V110H282.092L281.96 109.148H281.912C281.588 109.688 280.976 110.108 280.064 110.108ZM280.232 109.208C281.456 109.208 281.984 108.152 281.984 106.928C281.984 105.716 281.456 104.66 280.232 104.66C278.96 104.66 278.48 105.704 278.48 106.928C278.48 108.164 278.96 109.208 280.232 109.208ZM286.542 110.108C285.21 110.108 284.406 109.28 284.406 108.212C284.406 107.18 285.138 106.292 286.938 106.292C287.586 106.292 288.066 106.4 288.45 106.508V105.896C288.45 105.212 288.03 104.624 287.034 104.624C286.134 104.624 285.69 105.128 285.678 105.716H284.706C284.706 104.54 285.69 103.76 287.034 103.76C288.606 103.76 289.434 104.708 289.434 105.872V110H288.582L288.51 109.136H288.462C288.09 109.76 287.406 110.108 286.542 110.108ZM286.722 109.268C287.766 109.268 288.45 108.512 288.45 107.624V107.312C287.946 107.156 287.478 107.096 286.938 107.096C285.942 107.096 285.426 107.48 285.426 108.2C285.426 108.812 285.834 109.268 286.722 109.268ZM291.823 112.748V112.628L292.867 109.952L292.855 109.928L290.395 103.988V103.868H291.475L293.335 108.68H293.383L295.183 103.868H296.239V103.988L292.843 112.748H291.823ZM299.471 110.108C298.019 110.108 296.999 109.316 296.963 107.972H297.971C297.971 108.788 298.595 109.208 299.471 109.208C300.335 109.208 300.875 108.92 300.875 108.332C300.875 107.924 300.599 107.6 299.939 107.456L298.715 107.228C297.707 107.024 297.155 106.412 297.155 105.512C297.155 104.492 298.031 103.76 299.387 103.76C300.767 103.76 301.751 104.516 301.751 105.74H300.767C300.731 104.96 300.155 104.612 299.387 104.612C298.643 104.612 298.127 104.912 298.127 105.512C298.127 105.992 298.523 106.268 299.195 106.376L300.155 106.556C301.307 106.82 301.895 107.276 301.895 108.332C301.895 109.46 300.791 110.108 299.471 110.108ZM308.585 110.108C307.253 110.108 306.449 109.28 306.449 108.212C306.449 107.18 307.181 106.292 308.981 106.292C309.629 106.292 310.109 106.4 310.493 106.508V105.896C310.493 105.212 310.073 104.624 309.077 104.624C308.177 104.624 307.733 105.128 307.721 105.716H306.749C306.749 104.54 307.733 103.76 309.077 103.76C310.649 103.76 311.477 104.708 311.477 105.872V110H310.625L310.553 109.136H310.505C310.133 109.76 309.449 110.108 308.585 110.108ZM308.765 109.268C309.809 109.268 310.493 108.512 310.493 107.624V107.312C309.989 107.156 309.521 107.096 308.981 107.096C307.985 107.096 307.469 107.48 307.469 108.2C307.469 108.812 307.877 109.268 308.765 109.268ZM315.711 112.856C314.139 112.856 313.131 111.956 313.095 110.78H314.067C314.115 111.368 314.583 111.992 315.711 111.992C316.887 111.992 317.415 111.26 317.415 110.336V109.148H317.367C317.043 109.688 316.431 110.108 315.519 110.108C313.791 110.108 312.927 108.752 312.915 106.94C312.927 104.96 313.911 103.76 315.519 103.76C316.431 103.76 317.043 104.18 317.367 104.72H317.415L317.547 103.868H318.423V110.36C318.423 111.764 317.463 112.856 315.711 112.856ZM315.687 109.208C316.911 109.208 317.439 108.152 317.439 106.94C317.439 105.716 316.911 104.66 315.687 104.66C314.415 104.66 313.935 105.704 313.935 106.94C313.935 108.164 314.415 109.208 315.687 109.208ZM322.634 110.108C320.714 110.108 319.862 108.704 319.862 106.94C319.862 105.176 320.738 103.76 322.634 103.76C324.53 103.76 325.406 105.176 325.406 106.94C325.406 108.692 324.554 110.108 322.634 110.108ZM322.634 109.208C323.882 109.208 324.386 108.26 324.386 106.94C324.386 105.62 323.882 104.66 322.634 104.66C321.386 104.66 320.882 105.632 320.882 106.94C320.882 108.26 321.398 109.208 322.634 109.208Z" fill="#828C95"/>
</svg>
