<svg width="103" height="28" viewBox="0 0 103 28" fill="none" xmlns="http://www.w3.org/2000/svg">
<path fill-rule="evenodd" clip-rule="evenodd" d="M14.4432 2.04532C14.1508 1.98489 13.8492 1.98489 13.5568 2.04532C13.2188 2.11518 12.9167 2.28522 12.6766 2.4204L12.6111 2.45715L4.47141 7.00147C4.44891 7.01403 4.42572 7.02687 4.40196 7.04002C4.14772 7.18074 3.82806 7.35768 3.58258 7.62538C3.37034 7.85682 3.20972 8.13113 3.11147 8.42997C2.99782 8.77563 2.99915 9.14237 3.00021 9.43404C3.00031 9.4613 3.00041 9.48791 3.00041 9.51378V18.4862C3.00041 18.5121 3.00031 18.5387 3.00021 18.566C2.99915 18.8576 2.99782 19.2244 3.11147 19.57C3.20972 19.8689 3.37034 20.1432 3.58258 20.3746C3.82806 20.6423 4.14773 20.8193 4.40196 20.96C4.42572 20.9731 4.44891 20.986 4.47141 20.9985L12.6111 25.5429L12.6766 25.5796C12.9168 25.7148 13.2188 25.8848 13.5568 25.9547C13.8492 26.0151 14.1508 26.0151 14.4432 25.9547C14.7812 25.8848 15.0833 25.7148 15.3234 25.5796L15.3889 25.5429L23.5286 20.9985C23.5385 20.993 23.5486 20.9874 23.5588 20.9817C23.5717 20.9746 23.5848 20.9673 23.598 20.96C23.8523 20.8193 24.1719 20.6423 24.4174 20.3746C24.6297 20.1432 24.7903 19.8689 24.8885 19.57C25.0022 19.2244 25.0008 18.8576 24.9998 18.566C24.9997 18.5387 24.9996 18.5121 24.9996 18.4862V9.51377C24.9996 9.48791 24.9997 9.46131 24.9998 9.43405C25.0008 9.14237 25.0022 8.77563 24.8885 8.42997C24.7903 8.13113 24.6297 7.85682 24.4174 7.62537C24.1719 7.35767 23.8523 7.18073 23.598 7.04001L23.5971 7.03952C23.5737 7.02654 23.5508 7.01387 23.5286 7.00147L15.3889 2.45715L15.3234 2.42039C15.0833 2.28521 14.7812 2.11518 14.4432 2.04532ZM13.6795 4.38969C13.8462 4.29663 13.9313 4.24961 13.9947 4.21884L14 4.21631L14.0053 4.21884C14.0687 4.24961 14.1538 4.29663 14.3205 4.38969L21.6346 8.4731L14 12.7355L6.36533 8.47312L13.6795 4.38969ZM5.20032 10.3517L12.9 14.6504L12.9 23.1751L5.53979 19.066C5.36385 18.9678 5.27402 18.9171 5.211 18.8767L5.20567 18.8733L5.20528 18.867C5.20078 18.792 5.20032 18.6885 5.20032 18.4862V10.3517Z" fill="#0D0D12"/>
<path d="M41.5293 21.2344C37.4961 21.2344 34.7031 18.1875 34.7031 13.7344C34.7031 9.16406 37.5938 6.21484 41.5 6.21484C44.752 6.21484 47.3691 8.26562 47.7891 11.2734H45.1621C44.8008 9.63281 43.4336 8.5293 41.5684 8.5293C38.9609 8.5293 37.3008 10.5801 37.3008 13.7344C37.3008 16.8789 38.9707 18.9199 41.5879 18.9199C43.7363 18.9199 45.3184 17.5234 45.3379 15.4629H41.959V13.4219H47.8867V15.1797C47.8867 18.7246 45.2012 21.2344 41.5293 21.2344ZM52.3258 21.166C50.275 21.166 48.7613 20.1309 48.7613 18.0703C48.7613 15.7266 50.6852 15.1504 52.8141 14.9258C54.7281 14.7109 55.3824 14.6816 55.3824 13.9785V13.9004C55.3824 13.0215 54.6793 12.3965 53.4977 12.3965C52.2965 12.3965 51.4957 13.0215 51.4273 13.8906H49.0543C49.1715 11.8398 50.8512 10.4824 53.5465 10.4824C56.232 10.4824 57.8238 11.8203 57.8238 13.9688V21H55.402V19.5449H55.3629C54.8746 20.4629 54.0055 21.166 52.3258 21.166ZM52.9312 19.3398C54.5426 19.3398 55.3922 18.3828 55.3922 17.1816V16.0684C55.0895 16.2637 54.1324 16.4199 53.1168 16.5762C52.0621 16.7324 51.1637 17.1133 51.1637 18.0508C51.1637 18.8613 51.857 19.3398 52.9312 19.3398ZM61.8625 15.1699V21H59.4016V10.6875H61.8234V12.2695C62.5266 11.1074 63.5715 10.4824 64.9875 10.4824C67.1457 10.4824 68.6691 11.9082 68.6691 14.5547V21H66.1984V14.9453C66.1984 13.4316 65.4367 12.6406 64.1184 12.6406C62.8293 12.6406 61.8625 13.4121 61.8625 15.1699ZM75.7059 10.6875V12.6699H73.6063V18.041C73.6063 18.7734 73.8504 19.0176 74.6512 19.0176H75.7059V21H74.2215C72.1219 21 71.1355 20.1699 71.1355 18.4023V12.6699H69.3387V10.6875H71.1355V7.875H73.6063V10.6875H75.7059ZM81.2973 10.6875V12.6699H79.1977V18.041C79.1977 18.7734 79.4418 19.0176 80.2426 19.0176H81.2973V21H79.8129C77.7133 21 76.727 20.1699 76.727 18.4023V12.6699H74.9301V10.6875H76.727V7.875H79.1977V10.6875H81.2973ZM82.25 21V10.6875H84.7109V21H82.25ZM83.4805 9.1543C82.6406 9.1543 82.0059 8.54883 82.0059 7.74805C82.0059 6.95703 82.6406 6.35156 83.4805 6.35156C84.3203 6.35156 84.9551 6.95703 84.9551 7.74805C84.9551 8.54883 84.3203 9.1543 83.4805 9.1543ZM91.7965 10.6875V12.6699H89.6969V21H87.2262V12.6699H85.3707V10.6875H87.2262V9.18359C87.2262 7.40625 88.3199 6.44922 90.3609 6.44922H91.7965V8.43164H90.8492C90.0094 8.43164 89.6969 8.75391 89.6969 9.59375V10.6875H91.7965ZM92.9738 25.082V23.0801H94.1945C94.8586 23.0801 95.1711 22.748 95.4641 21.9375L95.8449 20.9414L91.8703 10.6875H94.4777L96.3723 16.0586C96.6262 16.8203 96.8801 17.582 97.1145 18.3438C97.3488 17.582 97.593 16.8203 97.8566 16.0586L99.7414 10.6875H102.32L97.7102 22.6992C97.0949 24.3105 96.0793 25.082 94.5852 25.082H92.9738Z" fill="#0D0D12"/>
</svg>
