<svg width="119" height="34" viewBox="0 0 119 34" fill="none" xmlns="http://www.w3.org/2000/svg">
<g clip-path="url(#clip0_140_1499)">
<path fill-rule="evenodd" clip-rule="evenodd" d="M54.8452 20.7245C54.0196 20.915 53.5925 20.6609 53.5925 20.1141C53.5925 19.3648 54.3672 19.0648 55.474 19.0648C55.9609 19.0648 56.4201 19.1069 56.4201 19.1069C56.4201 19.4276 55.7231 20.5221 54.8452 20.7245ZM55.6853 13.2226C53.0424 13.2226 51.145 14.1945 51.145 14.1945V17.0515C51.145 17.0515 53.2399 15.8472 54.9395 15.8472C56.2954 15.8472 56.4622 16.5788 56.4007 17.1857C56.4007 17.1857 56.0093 17.0822 54.8159 17.0822C52.0027 17.0822 50.5832 18.3607 50.5832 20.4105C50.5832 22.3549 52.1787 23.1675 53.5232 23.1675C55.4846 23.1675 56.3473 21.849 56.612 21.2237C56.796 20.7899 56.8299 20.4974 56.9946 20.4974C57.1836 20.4974 57.12 20.7072 57.1104 21.1389C57.0949 21.8953 57.1309 22.4669 57.2507 22.9488H59.8519V18.2699C59.8519 15.3487 58.8182 13.2226 55.6853 13.2226Z" fill="white" fill-opacity="0.5"/>
<path fill-rule="evenodd" clip-rule="evenodd" d="M72.8055 18.1998C72.8055 17.3452 73.6 16.5669 75.0584 16.5669C76.6471 16.5669 77.9256 17.3321 78.2121 17.506V14.1986C78.2121 14.1986 77.2024 13.2263 74.7206 13.2263C72.1046 13.2263 69.9259 14.7571 69.9259 18.0521C69.9259 21.3468 71.9033 23.174 74.7136 23.174C76.9092 23.174 78.2178 21.9675 78.2178 21.9675V18.8265C77.8037 19.0579 76.6503 19.8588 75.0743 19.8588C73.4057 19.8588 72.8055 19.0908 72.8055 18.1998ZM38.0393 13.4429C38.0397 13.445 38.2053 14.1558 37.987 15.0853C37.8757 15.558 37.6712 15.96 37.9181 15.96C38.0884 15.96 38.0888 15.8187 38.3103 15.3121C38.6342 14.5716 39.3171 13.2239 40.9129 13.2239C42.4299 13.2239 43.1445 14.1456 43.3812 15.0086C43.5614 15.6643 43.4039 15.96 43.6236 15.96C43.7797 15.96 43.8338 15.6198 44.026 15.1895C44.3711 14.4186 45.1218 13.2239 46.6402 13.2239C48.9313 13.2239 49.806 14.8783 49.806 17.3601V22.9521H46.4025V17.7967C46.4025 16.9372 46.2636 16.1034 45.4801 16.1034C44.7541 16.1034 44.4156 17.3901 44.4156 18.2206V22.9542H40.9496V17.7971C40.9496 16.6973 40.7945 16.1038 40.0216 16.1038C39.3524 16.1038 38.9621 17.2876 38.9621 18.221V22.9525H35.5098V13.4429H38.0393ZM60.9848 13.456C60.9862 13.4567 61.5737 13.7955 62.7141 13.7955C63.8566 13.7955 64.4367 13.456 64.4367 13.456V22.9546H60.9848V13.456ZM89.4835 13.456C89.4849 13.4567 90.0724 13.7955 91.2131 13.7955C92.3553 13.7955 92.9357 13.456 92.9357 13.456V22.9546H89.4835V13.456ZM69.006 10.564V22.9546H65.5538V10.564H69.006ZM82.3147 10.564C82.3151 10.5651 82.4578 10.9212 82.4578 11.9803C82.4578 13.5443 82.1176 14.8171 81.9569 15.3022C81.8717 15.559 81.7198 15.9554 81.9378 15.9625C82.0636 15.9664 82.1392 15.777 82.2932 15.4485C82.4465 15.1196 83.2068 13.226 85.2049 13.226C87.9573 13.226 88.3622 15.4799 88.3622 17.9207V22.9542H84.9099V17.714C84.9099 16.6394 84.6845 16.1056 83.9642 16.1056C83.0944 16.1056 82.7871 17.4523 82.7871 18.2231V22.9542H79.3348V10.5637L82.3147 10.564ZM96.6314 13.4429C96.6317 13.445 96.7974 14.1558 96.5791 15.0853C96.4678 15.558 96.2633 15.96 96.5102 15.96C96.6805 15.96 96.6808 15.8187 96.9024 15.3121C97.226 14.5716 97.9092 13.2239 99.505 13.2239C101.091 13.2239 101.72 14.1498 101.973 15.0086C102.143 15.5841 101.996 15.96 102.216 15.96C102.372 15.96 102.426 15.6198 102.618 15.1895C102.963 14.4186 103.714 13.2239 105.232 13.2239C107.523 13.2239 108.398 14.8783 108.398 17.3601V22.9521H104.995V17.7967C104.995 16.9372 104.856 16.1034 104.072 16.1034C103.346 16.1034 103.007 17.3901 103.007 18.2206V22.9542H99.5414V17.7971C99.5414 16.6973 99.387 16.1038 98.6136 16.1038C97.9445 16.1038 97.5542 17.2876 97.5542 18.221V22.9525H94.1019V13.4429H96.6314ZM62.7003 10.4679C61.5338 10.4679 60.5874 11.0855 60.5874 11.8471C60.5874 12.6088 61.5334 13.2263 62.7003 13.2263C63.8676 13.2263 64.8136 12.6088 64.8136 11.8471C64.8136 11.0855 63.8679 10.4679 62.7003 10.4679ZM91.1994 10.4679C90.0325 10.4679 89.086 11.0855 89.086 11.8471C89.086 12.6088 90.0321 13.2263 91.1994 13.2263C92.3662 13.2263 93.3127 12.6088 93.3127 11.8471C93.3127 11.0855 92.3666 10.4679 91.1994 10.4679Z" fill="white" fill-opacity="0.5"/>
<path fill-rule="evenodd" clip-rule="evenodd" d="M114.279 20.9054C113.487 20.9054 112.905 19.9018 112.905 18.5031C112.905 17.1448 113.503 16.1015 114.251 16.1015C115.211 16.1015 115.621 16.9823 115.621 18.5031C115.621 20.0855 115.243 20.9054 114.279 20.9054ZM115.226 13.2205C113.452 13.2205 112.638 14.5506 112.285 15.3084C112.052 15.809 112.064 15.9563 111.893 15.9563C111.647 15.9563 111.851 15.5543 111.962 15.0816C112.181 14.1507 112.015 13.4396 112.015 13.4396H109.487V25.5722H112.938V21.7257C113.346 22.4185 114.102 23.1586 115.268 23.1586C117.764 23.1586 119.02 21.0471 119.02 18.1943C119.02 14.9611 117.517 13.2205 115.226 13.2205" fill="white" fill-opacity="0.5"/>
<path fill-rule="evenodd" clip-rule="evenodd" d="M23.3063 16.0913C23.5384 16.0638 23.7606 16.0624 23.9651 16.0913C24.0835 15.82 24.1036 15.3526 23.9973 14.8436C23.8394 14.0868 23.6253 13.629 23.183 13.7004C22.7407 13.7717 22.7244 14.32 22.8827 15.0764C22.9717 15.5021 23.13 15.866 23.3063 16.0913Z" fill="white" fill-opacity="0.5"/>
<path fill-rule="evenodd" clip-rule="evenodd" d="M19.5117 16.6902C19.8279 16.829 20.0225 16.9212 20.0985 16.8407C20.1476 16.7905 20.1327 16.6948 20.0571 16.5715C19.901 16.3168 19.5798 16.0582 19.2389 15.913C18.5423 15.613 17.711 15.7127 17.0698 16.1733C16.8582 16.3284 16.6575 16.5432 16.6861 16.6736C16.6953 16.7156 16.7271 16.7474 16.8013 16.758C16.9758 16.7778 17.5856 16.4697 18.2883 16.4266C18.7839 16.3963 19.1951 16.5514 19.5117 16.6902Z" fill="white" fill-opacity="0.5"/>
<path fill-rule="evenodd" clip-rule="evenodd" d="M18.8766 17.0534C18.4643 17.1184 18.2372 17.2544 18.0913 17.3805C17.9669 17.4893 17.8899 17.6098 17.8906 17.6942C17.891 17.7345 17.9083 17.7578 17.9221 17.7695C17.9408 17.7861 17.963 17.7953 17.9899 17.7953C18.0828 17.7953 18.2916 17.7116 18.2916 17.7116C18.865 17.5063 19.2433 17.5314 19.6182 17.5738C19.8252 17.5971 19.9234 17.6098 19.9686 17.5388C19.982 17.5183 19.9983 17.4741 19.957 17.407C19.8605 17.2505 19.444 16.9859 18.8766 17.0534Z" fill="white" fill-opacity="0.5"/>
<path fill-rule="evenodd" clip-rule="evenodd" d="M22.0258 18.3861C22.3056 18.5235 22.6137 18.4694 22.714 18.2656C22.8143 18.0618 22.6688 17.7848 22.389 17.6474C22.1092 17.5099 21.8011 17.564 21.7008 17.7678C21.6005 17.972 21.746 18.2486 22.0258 18.3861Z" fill="white" fill-opacity="0.5"/>
<path fill-rule="evenodd" clip-rule="evenodd" d="M23.825 16.8144C23.5978 16.8105 23.4091 17.0599 23.4038 17.3719C23.3985 17.6838 23.5787 17.9393 23.8059 17.9431C24.033 17.947 24.2217 17.6976 24.227 17.3857C24.2323 17.0741 24.0521 16.8183 23.825 16.8144Z" fill="white" fill-opacity="0.5"/>
<path fill-rule="evenodd" clip-rule="evenodd" d="M8.55626 22.4349C8.49973 22.3639 8.40682 22.3854 8.31674 22.4066C8.25385 22.4215 8.18284 22.4377 8.10477 22.4367C7.93767 22.4335 7.796 22.3621 7.71651 22.2399C7.613 22.0809 7.61901 21.8439 7.73312 21.5725L7.78646 21.451C7.96876 21.0419 8.27364 20.3576 7.93131 19.7055C7.67342 19.2144 7.25301 18.9088 6.74747 18.8445C6.26206 18.7831 5.76253 18.9629 5.44387 19.3144C4.94115 19.869 4.86237 20.624 4.95952 20.8907C4.9952 20.9882 5.05102 21.0154 5.09129 21.0211C5.17679 21.0324 5.30326 20.9702 5.3824 20.7572L5.40501 20.6879C5.44034 20.5752 5.50604 20.3654 5.61379 20.1972C5.7438 19.9944 5.94588 19.8549 6.18328 19.8037C6.42493 19.7517 6.67222 19.798 6.87924 19.9337C7.23146 20.164 7.36712 20.5957 7.21663 21.0073C7.1389 21.2203 7.01243 21.6277 7.04034 21.9622C7.09686 22.6395 7.51338 22.9115 7.8875 22.9404C8.25138 22.9542 8.50574 22.7497 8.57004 22.6006C8.60784 22.5123 8.57604 22.4586 8.5552 22.4356" fill="white" fill-opacity="0.5"/>
<path fill-rule="evenodd" clip-rule="evenodd" d="M12.0172 9.99604C13.2042 8.62461 14.665 7.43229 15.9739 6.76283C16.0192 6.73951 16.0672 6.78862 16.0428 6.83313C15.939 7.02143 15.7386 7.42452 15.6754 7.7301C15.6655 7.77779 15.7175 7.81348 15.7577 7.78628C16.572 7.23128 17.9883 6.63635 19.2308 6.56004C19.2842 6.55686 19.3099 6.62505 19.2676 6.6579C19.0785 6.80275 18.8719 7.00341 18.721 7.20619C18.6952 7.24082 18.7196 7.29027 18.7627 7.29063C19.635 7.29699 20.8647 7.60222 21.6663 8.05194C21.7204 8.08233 21.6819 8.18725 21.6211 8.17347C20.4083 7.89544 18.4232 7.68453 16.3608 8.1876C14.5198 8.63662 13.1145 9.33011 12.0896 10.0755C12.0377 10.1133 11.9752 10.0444 12.0172 9.99604ZM17.9283 23.2836L17.9286 23.2843L17.9293 23.2857L17.9283 23.2836ZM22.8226 23.8612C22.8579 23.8464 22.882 23.8064 22.8781 23.7665C22.8731 23.7174 22.8293 23.6817 22.7802 23.6867C22.7802 23.6867 20.2475 24.0615 17.8548 23.1857C18.1155 22.3386 18.8083 22.6445 19.8558 22.7289C21.7437 22.8416 23.4359 22.5657 24.6865 22.2068C25.77 21.8959 27.1934 21.2826 28.2988 20.41C28.6715 21.2289 28.8033 22.1305 28.8033 22.1305C28.8033 22.1305 29.0919 22.0789 29.3332 22.2273C29.5611 22.3675 29.7282 22.659 29.614 23.4129C29.3816 24.8211 28.7831 25.9643 27.777 27.016C27.1644 27.6752 26.4211 28.2482 25.5704 28.6651C25.1186 28.9025 24.6377 29.1077 24.1294 29.2734C20.3366 30.5124 16.454 29.1505 15.2027 26.226C15.1027 26.0063 15.0183 25.776 14.9519 25.5354C14.4188 23.6082 14.8713 21.296 16.2866 19.8405C16.3738 19.748 16.4629 19.6381 16.4629 19.5007C16.4629 19.3859 16.3897 19.2647 16.3265 19.1785C15.8312 18.4603 14.116 17.2365 14.4605 14.8681C14.7078 13.1667 16.1958 11.9684 17.5831 12.0394L17.9346 12.0595C18.5359 12.0952 19.0602 12.1722 19.5551 12.1931C20.3836 12.2291 21.1283 12.1086 22.0108 11.3735C22.3082 11.1255 22.547 10.9103 22.9508 10.8421C22.9932 10.8347 23.0989 10.7969 23.3098 10.8068C23.5253 10.8185 23.7302 10.8775 23.9142 11.0001C24.6215 11.4706 24.7218 12.6107 24.7586 13.4444C24.7794 13.9203 24.837 15.072 24.8568 15.4026C24.9016 16.1586 25.1005 16.265 25.5026 16.3975C25.7287 16.472 25.9385 16.5275 26.248 16.6144C27.1842 16.8772 27.7392 17.1439 28.0893 17.4866C28.2981 17.7007 28.3952 17.9282 28.4253 18.1451C28.5355 18.9506 27.7999 19.9454 25.8523 20.8495C23.7235 21.8376 21.1406 22.0877 19.3562 21.8888L18.7309 21.8182C17.3037 21.626 16.4894 23.4705 17.3461 24.7345C17.8982 25.5492 19.4022 26.0791 20.9068 26.0794C24.3565 26.0798 27.0083 24.6066 27.9946 23.3345L28.0734 23.2221C28.1221 23.149 28.0819 23.1087 28.0215 23.15C27.2156 23.7015 23.6362 25.8908 19.8074 25.2319C19.8074 25.2319 19.3421 25.1553 18.9175 24.9903C18.5801 24.8589 17.8735 24.5338 17.7877 23.8093C20.8774 24.7649 22.8226 23.8612 22.8226 23.8612ZM5.85142 16.5183C4.77675 16.7271 3.8296 17.3361 3.25058 18.1776C2.90437 17.889 2.25963 17.3301 2.14552 17.1121C1.22099 15.3563 3.15448 11.943 4.50542 10.0151C7.84391 5.25114 13.0724 1.64522 15.4928 2.29949C15.8863 2.41078 17.1896 3.92175 17.1896 3.92175C17.1896 3.92175 14.77 5.26421 12.5263 7.13553C9.50292 9.46329 7.21967 12.8467 5.85142 16.5183ZM7.65703 24.5748C7.49452 24.6027 7.32848 24.6137 7.16103 24.6094C5.54407 24.566 3.79781 23.1105 3.62435 21.3844C3.43252 19.4763 4.40757 18.0081 6.13369 17.6597C6.34 17.618 6.58942 17.594 6.85826 17.6082C7.82554 17.6611 9.25067 18.4037 9.57604 20.5107C9.86432 22.3767 9.40647 24.2767 7.65703 24.5748ZM29.5589 21.1961C29.5452 21.1469 29.4547 20.8173 29.3307 20.4199C29.2067 20.0221 29.0785 19.7427 29.0785 19.7427C29.5759 18.9983 29.5847 18.3324 29.5183 17.9554C29.4477 17.488 29.253 17.0899 28.8609 16.678C28.4687 16.2664 27.6664 15.8446 26.5391 15.528L25.9477 15.3638C25.9449 15.3394 25.9166 13.9694 25.8912 13.3812C25.8725 12.9558 25.8361 12.292 25.6301 11.6384C25.3846 10.7535 24.9571 9.97908 24.4233 9.48378C25.8965 7.95691 26.8161 6.27459 26.8136 4.8318C26.8094 2.05679 23.4013 1.21705 19.2011 2.95624L18.3112 3.3339C18.3073 3.33001 16.7024 1.75545 16.6784 1.73425C11.8897 -2.44257 -3.08231 14.1994 1.70427 18.2412L2.75034 19.1276C2.47902 19.8306 2.37232 20.6361 2.45958 21.502C2.57122 22.6145 3.14495 23.6807 4.07513 24.5045C4.95798 25.2867 6.11885 25.782 7.24511 25.7809C9.10795 30.0736 13.3643 32.707 18.3547 32.8553C23.7079 33.0143 28.2016 30.5025 30.0846 25.9904C30.2079 25.6739 30.7304 24.247 30.7304 22.9872C30.7304 21.7214 30.0147 21.1961 29.5589 21.1961Z" fill="white" fill-opacity="0.5"/>
</g>
<defs>
<clipPath id="clip0_140_1499">
<rect width="119" height="34" fill="white"/>
</clipPath>
</defs>
</svg>
