<svg width="82" height="34" viewBox="0 0 82 34" fill="none" xmlns="http://www.w3.org/2000/svg">
<path fill-rule="evenodd" clip-rule="evenodd" d="M74.5527 16.478H73.8786L73.8708 22.4952H70.9632V5.43359H73.8786V13.8992C75.9868 13.8992 78.1107 12.9014 78.1107 10.2612H81.0105C81.0105 12.6942 79.4901 14.9583 77.2251 15.8256L81.8961 22.4952H78.6122L74.5527 16.478ZM23.3595 20.3306C21.1102 20.3306 19.6212 18.6267 19.2058 17.9668C19.7387 13.7915 21.2984 12.4714 23.3595 12.4714C25.3972 12.4714 26.9803 14.0678 26.9803 16.401C26.9803 18.7342 25.3972 20.3306 23.3595 20.3306ZM23.3595 9.90792C19.6918 9.90792 17.6384 12.2488 17.0506 14.6588C16.3844 13.4308 15.8907 11.7883 15.5067 10.261H10.436V16.4394C10.436 18.6805 9.39367 20.3383 7.35601 20.3383C5.31834 20.3383 4.15061 18.6805 4.15061 16.4394L4.17412 10.261H1.25085V16.4394C1.25085 18.243 1.84648 19.8778 2.93585 21.0444C4.05656 22.2494 5.58481 22.8787 7.35601 22.8787C10.8827 22.8787 13.3436 20.2309 13.3436 16.4394V12.2872C13.7119 13.6533 14.5897 16.2782 16.2669 18.5807L14.6995 27.3226H17.6698L18.7042 21.1288C19.0412 21.4051 19.4017 21.6507 19.7857 21.8733C20.781 22.4873 21.9174 22.8327 23.0931 22.871C23.0931 22.871 23.2733 22.8787 23.3673 22.8787C27.0038 22.8787 29.8957 20.1234 29.8957 16.401C29.8957 12.6786 26.9959 9.90792 23.3595 9.90792ZM65.359 11.5817V10.2616H62.4906V22.4879H65.3982V17.6987C65.3982 14.7515 65.6725 12.6332 69.7086 12.9095V10.1158C67.8277 9.97763 66.3622 10.3614 65.359 11.5817ZM43.0631 18.8119L45.1713 10.2619H48.2827L44.8656 22.4959H41.3702L38.9642 13.8078L36.5348 22.4959H33.0394L29.8104 10.2619H32.7572L34.8576 18.8119L37.1147 10.2619H40.8138L43.0631 18.8119ZM54.6855 20.3383C52.6166 20.3383 51.0648 18.7419 51.0648 16.401C51.0648 14.0601 52.6244 12.4714 54.6855 12.4714C56.7233 12.4714 58.3064 14.0678 58.3064 16.401C58.3064 18.7342 56.7233 20.3383 54.6855 20.3383ZM54.6855 9.90792C51.0256 9.90792 48.1572 12.6863 48.1572 16.401C48.1572 20.1157 51.0256 22.871 54.6855 22.871C58.322 22.871 61.214 20.1157 61.214 16.401C61.214 12.6863 58.3299 9.90792 54.6855 9.90792Z" fill="white" fill-opacity="0.5"/>
</svg>
