<svg width="137" height="40" viewBox="0 0 137 40" fill="none" xmlns="http://www.w3.org/2000/svg">
<path fill-rule="evenodd" clip-rule="evenodd" d="M8.81921 16.7269L16.6547 11.7285L24.4901 16.6999L16.6547 21.6984L24.4496 26.7239L32.285 21.7254L24.4496 16.7269L32.285 11.7285L24.4496 6.72998L16.6547 11.7285L8.81921 6.72998L0.983765 11.7285L8.81921 16.6999L0.983765 21.6984L8.81921 26.7239L16.6547 21.7254L8.81921 16.7269ZM16.6141 23.333L8.77869 28.3315L16.6141 33.33L24.4496 28.3315L16.6141 23.333ZM44.7677 11.7284H38.4318V28.3179H44.8893C49.0232 28.3179 52.1439 25.8997 52.1439 20.523V19.4017C52.1439 14.0655 48.807 11.7284 44.7677 11.7284ZM41.9713 25.2918V14.741H44.5651C46.9022 14.741 48.5233 16.2405 48.5233 19.5773V20.4554C48.5233 23.7923 46.9833 25.2918 44.6867 25.2918H41.9713ZM56.8586 14.9031H54.0757V28.3584H57.5746V22.1846C57.5746 19.3477 58.2771 18.348 61.1546 18.348H62.6136V14.768H61.7355C59.2363 14.768 57.8583 15.9028 57.318 18.0237L56.8586 14.9031ZM63.3161 21.5227V21.9009C63.3161 26.332 65.7748 28.6556 70.1114 28.6962C74.1912 28.6962 76.9066 26.3185 76.9066 21.9009V21.5227C76.9066 17.024 74.1101 14.5653 70.1114 14.5653C66.1936 14.5653 63.3161 17.024 63.3161 21.5227ZM73.3266 21.5227V21.8604C73.3266 24.2786 72.0702 25.616 70.0708 25.6566C68.0714 25.6566 66.8151 24.2786 66.8151 21.8604V21.5227C66.8151 18.9019 68.112 17.5239 70.0708 17.5239C72.0702 17.5239 73.3266 19.0234 73.3266 21.5227ZM81.6619 14.9031H78.7439L78.7033 33.0057H82.1212V26.2104C82.8372 27.7505 84.2962 28.7097 86.4172 28.7097C89.5919 28.7097 92.0911 26.3725 92.0911 21.955V21.5767C92.0911 17.024 89.8351 14.5653 86.4172 14.5653C84.2017 14.5653 82.7021 15.7407 81.9996 17.4428L81.6619 14.9031ZM88.5382 21.5632V21.8604C88.5382 24.3732 87.2953 25.6566 85.2824 25.6971C83.3235 25.6971 82.0672 24.1975 82.0672 21.8199V21.5632C82.0672 19.064 83.3641 17.5644 85.3229 17.5644C87.1602 17.5644 88.5382 18.8883 88.5382 21.5632ZM96.968 28.3314L97.2652 25.8727C97.9677 27.6154 99.4268 28.6556 101.683 28.7097C105.101 28.7097 107.357 26.1564 107.357 21.6983V21.2795C107.357 16.8214 104.979 14.6059 101.764 14.5653C99.6429 14.5653 98.1433 15.5245 97.3868 17.2807V10.4044H93.9689V28.3314H96.968ZM103.763 21.3606V21.6983C103.763 24.3732 102.561 25.6566 100.508 25.6566C98.5892 25.6566 97.2923 24.1975 97.2923 21.6983V21.4011C97.2923 19.064 98.6297 17.5239 100.548 17.5239C102.426 17.5239 103.763 18.9019 103.763 21.3606ZM108.856 21.5227V21.9009C108.856 26.332 111.315 28.6556 115.652 28.6962C119.691 28.6962 122.447 26.3185 122.447 21.9009V21.5227C122.447 17.024 119.65 14.5653 115.652 14.5653C111.734 14.5653 108.856 17.024 108.856 21.5227ZM118.894 21.5227V21.8604C118.894 24.2786 117.651 25.616 115.638 25.6566C113.639 25.6566 112.382 24.2786 112.382 21.8604V21.5227C112.382 18.9019 113.679 17.5239 115.638 17.5239C117.637 17.5239 118.894 19.0234 118.894 21.5227ZM122.312 14.9031L127.026 21.3606L121.906 28.3314H126.04L129.039 23.8733L132.119 28.3314H136.078L131.039 21.32L135.821 14.9031H131.822L129.066 18.9424L126.351 14.9031H122.312Z" fill="#818898"/>
</svg>
