<svg width="141" height="40" viewBox="0 0 141 40" fill="none" xmlns="http://www.w3.org/2000/svg">
<g clip-path="url(#clip0_1_17981)">
<path fill-rule="evenodd" clip-rule="evenodd" d="M64.7365 24.3817C63.7652 24.6057 63.2627 24.3069 63.2627 23.6635C63.2627 22.782 64.1741 22.4291 65.4763 22.4291C66.049 22.4291 66.5893 22.4786 66.5893 22.4786C66.5893 22.856 65.7693 24.1436 64.7365 24.3817ZM65.7248 15.556C62.6156 15.556 60.3832 16.6993 60.3832 16.6993V20.0605C60.3832 20.0605 62.8479 18.6436 64.8474 18.6436C66.4426 18.6436 66.6388 19.5044 66.5665 20.2184C66.5665 20.2184 66.106 20.0966 64.702 20.0966C61.3924 20.0966 59.7224 21.6008 59.7224 24.0122C59.7224 26.2998 61.5994 27.2557 63.1812 27.2557C65.4888 27.2557 66.5037 25.7046 66.815 24.969C67.0315 24.4586 67.0714 24.1145 67.2651 24.1145C67.4875 24.1145 67.4127 24.3613 67.4015 24.8692C67.3832 25.7591 67.4256 26.4316 67.5665 26.9985H70.6267V21.494C70.6267 18.0572 69.4106 15.556 65.7248 15.556Z" fill="#818898"/>
<path fill-rule="evenodd" clip-rule="evenodd" d="M85.8663 21.4114C85.8663 20.406 86.801 19.4904 88.5167 19.4904C90.3857 19.4904 91.8899 20.3907 92.2269 20.5952V16.7041C92.2269 16.7041 91.0391 15.5603 88.1194 15.5603C85.0417 15.5603 82.4785 17.3612 82.4785 21.2377C82.4785 25.1138 84.8048 27.2634 88.111 27.2634C90.6941 27.2634 92.2336 25.8441 92.2336 25.8441V22.1488C91.7465 22.421 90.3895 23.3632 88.5354 23.3632C86.5724 23.3632 85.8663 22.4596 85.8663 21.4114ZM44.9648 15.8151C44.9652 15.8176 45.1602 16.6538 44.9033 17.7473C44.7724 18.3034 44.5317 18.7764 44.8223 18.7764C45.0226 18.7764 45.023 18.6101 45.2836 18.0141C45.6647 17.143 46.4681 15.5574 48.3455 15.5574C50.1302 15.5574 50.971 16.6418 51.2495 17.6571C51.4614 18.4285 51.2761 18.7764 51.5346 18.7764C51.7183 18.7764 51.7819 18.3761 52.008 17.8699C52.414 16.963 53.2972 15.5574 55.0836 15.5574C57.7789 15.5574 58.808 17.5038 58.808 20.4235V27.0024H54.8039V20.9372C54.8039 19.926 54.6405 18.9451 53.7187 18.9451C52.8646 18.9451 52.4664 20.4588 52.4664 21.436V27.0049H48.3887V20.9376C48.3887 19.6438 48.2063 18.9455 47.2969 18.9455C46.5097 18.9455 46.0504 20.3383 46.0504 21.4364V27.0028H41.989V15.8151H44.9648ZM71.9595 15.8305C71.9612 15.8313 72.6524 16.2299 73.994 16.2299C75.3381 16.2299 76.0206 15.8305 76.0206 15.8305V27.0053H71.9595V15.8305ZM105.487 15.8305C105.489 15.8313 106.18 16.2299 107.522 16.2299C108.866 16.2299 109.549 15.8305 109.549 15.8305V27.0053H105.487V15.8305ZM81.3962 12.4282V27.0053H77.3348V12.4282H81.3962ZM97.0536 12.4282C97.054 12.4294 97.2219 12.8484 97.2219 14.0944C97.2219 15.9344 96.8217 17.4318 96.6325 18.0025C96.5324 18.3047 96.3537 18.771 96.6101 18.7793C96.7581 18.7839 96.847 18.5611 97.0282 18.1746C97.2086 17.7876 98.103 15.5599 100.454 15.5599C103.692 15.5599 104.168 18.2116 104.168 21.0831V27.0049H100.107V20.84C100.107 19.5756 99.8416 18.9476 98.9941 18.9476C97.9709 18.9476 97.6093 20.532 97.6093 21.4389V27.0049H93.5478V12.4278L97.0536 12.4282ZM113.897 15.8151C113.897 15.8176 114.092 16.6538 113.835 17.7473C113.704 18.3034 113.464 18.7764 113.754 18.7764C113.954 18.7764 113.955 18.6101 114.215 18.0141C114.596 17.143 115.4 15.5574 117.277 15.5574C119.144 15.5574 119.884 16.6467 120.181 17.6571C120.381 18.3342 120.208 18.7764 120.466 18.7764C120.65 18.7764 120.714 18.3761 120.94 17.8699C121.345 16.963 122.229 15.5574 124.015 15.5574C126.711 15.5574 127.74 17.5038 127.74 20.4235V27.0024H123.736V20.9372C123.736 19.926 123.572 18.9451 122.651 18.9451C121.796 18.9451 121.398 20.4588 121.398 21.436V27.0049H117.32V20.9376C117.32 19.6438 117.139 18.9455 116.229 18.9455C115.442 18.9455 114.982 20.3383 114.982 21.4364V27.0028H110.921V15.8151H113.897ZM73.9778 12.3151C72.6054 12.3151 71.4919 13.0416 71.4919 13.9377C71.4919 14.8338 72.605 15.5603 73.9778 15.5603C75.351 15.5603 76.464 14.8338 76.464 13.9377C76.464 13.0416 75.3514 12.3151 73.9778 12.3151ZM107.506 12.3151C106.133 12.3151 105.02 13.0416 105.02 13.9377C105.02 14.8338 106.133 15.5603 107.506 15.5603C108.879 15.5603 109.992 14.8338 109.992 13.9377C109.992 13.0416 108.879 12.3151 107.506 12.3151Z" fill="#818898"/>
<path fill-rule="evenodd" clip-rule="evenodd" d="M134.658 24.5945C133.727 24.5945 133.042 23.4137 133.042 21.7683C133.042 20.1702 133.745 18.9429 134.626 18.9429C135.755 18.9429 136.237 19.979 136.237 21.7683C136.237 23.6299 135.793 24.5945 134.658 24.5945ZM135.772 15.5535C133.686 15.5535 132.728 17.1183 132.313 18.0098C132.038 18.5987 132.053 18.7721 131.851 18.7721C131.562 18.7721 131.802 18.2991 131.933 17.743C132.191 16.6478 131.995 15.8112 131.995 15.8112H129.021V30.0849H133.08V25.5596C133.56 26.3746 134.45 27.2454 135.822 27.2454C138.759 27.2454 140.236 24.7612 140.236 21.405C140.236 17.6012 138.468 15.5535 135.773 15.5535" fill="#818898"/>
<path fill-rule="evenodd" clip-rule="evenodd" d="M27.6319 18.9309C27.9049 18.8985 28.1663 18.8968 28.407 18.9309C28.5462 18.6117 28.5699 18.0618 28.4448 17.4629C28.259 16.5727 28.0072 16.034 27.4868 16.118C26.9664 16.2019 26.9473 16.847 27.1335 17.7368C27.2383 18.2377 27.4245 18.6657 27.6319 18.9309Z" fill="#818898"/>
<path fill-rule="evenodd" clip-rule="evenodd" d="M23.1676 19.6354C23.5396 19.7988 23.7686 19.9072 23.858 19.8125C23.9157 19.7535 23.8983 19.6408 23.8093 19.4958C23.6256 19.1961 23.2478 18.8919 22.8467 18.7211C22.0271 18.3682 21.0492 18.4854 20.2948 19.0274C20.0459 19.2098 19.8098 19.4625 19.8435 19.6159C19.8543 19.6654 19.8917 19.7028 19.9789 19.7152C20.1843 19.7385 20.9016 19.3761 21.7283 19.3254C22.3114 19.2896 22.7952 19.4721 23.1676 19.6354Z" fill="#818898"/>
<path fill-rule="evenodd" clip-rule="evenodd" d="M22.4205 20.0627C21.9355 20.1392 21.6682 20.2992 21.4966 20.4476C21.3503 20.5756 21.2597 20.7173 21.2605 20.8167C21.2609 20.864 21.2813 20.8915 21.2975 20.9052C21.3195 20.9247 21.3457 20.9355 21.3773 20.9355C21.4866 20.9355 21.7322 20.837 21.7322 20.837C22.4068 20.5956 22.8519 20.6251 23.2929 20.6749C23.5364 20.7024 23.652 20.7173 23.7052 20.6338C23.721 20.6097 23.7401 20.5577 23.6915 20.4788C23.578 20.2946 23.088 19.9833 22.4205 20.0627Z" fill="#818898"/>
<path fill-rule="evenodd" clip-rule="evenodd" d="M26.1254 21.6306C26.4546 21.7922 26.817 21.7287 26.9351 21.4888C27.0531 21.249 26.8818 20.9232 26.5527 20.7615C26.2235 20.5998 25.8611 20.6634 25.743 20.9032C25.625 21.1435 25.7962 21.4689 26.1254 21.6306Z" fill="#818898"/>
<path fill-rule="evenodd" clip-rule="evenodd" d="M28.2421 19.7816C27.9748 19.777 27.7529 20.0704 27.7466 20.4374C27.7404 20.8044 27.9524 21.1049 28.2196 21.1095C28.4869 21.1141 28.7088 20.8206 28.715 20.4536C28.7213 20.0871 28.5093 19.7862 28.2421 19.7816Z" fill="#818898"/>
<path fill-rule="evenodd" clip-rule="evenodd" d="M10.2789 26.3939C10.2124 26.3104 10.1031 26.3357 9.9971 26.3607C9.92312 26.3781 9.83958 26.3972 9.74772 26.396C9.55114 26.3923 9.38447 26.3083 9.29096 26.1645C9.16918 25.9775 9.17624 25.6986 9.31049 25.3794L9.37325 25.2364C9.58771 24.7551 9.94639 23.9501 9.54366 23.1828C9.24025 22.6051 8.74566 22.2456 8.1509 22.1699C7.57984 22.0976 6.99215 22.3092 6.61725 22.7227C6.02582 23.3752 5.93314 24.2634 6.04743 24.5772C6.08941 24.6919 6.15508 24.7239 6.20246 24.7306C6.30304 24.7439 6.45184 24.6707 6.54493 24.4201L6.57154 24.3387C6.6131 24.2061 6.6904 23.9592 6.81717 23.7614C6.97012 23.5228 7.20786 23.3586 7.48715 23.2984C7.77144 23.2373 8.06238 23.2917 8.30593 23.4513C8.72031 23.7223 8.87991 24.2302 8.70285 24.7144C8.61142 24.965 8.46262 25.4442 8.49545 25.8378C8.56195 26.6346 9.05197 26.9546 9.49212 26.9887C9.92021 27.0049 10.2195 26.7642 10.2951 26.5888C10.3396 26.4849 10.3022 26.4218 10.2776 26.3947" fill="#818898"/>
<path fill-rule="evenodd" clip-rule="evenodd" d="M14.3506 11.76C15.7471 10.1465 17.4657 8.74379 19.0056 7.95618C19.0588 7.92875 19.1153 7.98652 19.0866 8.03889C18.9644 8.26042 18.7288 8.73464 18.6544 9.09415C18.6427 9.15026 18.7038 9.19224 18.7512 9.16024C19.7092 8.5073 21.3754 7.80739 22.8372 7.71761C22.8999 7.71387 22.9303 7.79409 22.8804 7.83274C22.6581 8.00315 22.4149 8.23922 22.2374 8.47779C22.2071 8.51852 22.2358 8.57671 22.2865 8.57712C23.3127 8.5846 24.7594 8.9437 25.7025 9.47279C25.7661 9.50853 25.7208 9.63197 25.6493 9.61576C24.2225 9.28867 21.8871 9.04054 19.4607 9.63239C17.2949 10.1606 15.6415 10.9765 14.4358 11.8535C14.3747 11.8979 14.3011 11.8169 14.3506 11.76ZM21.3048 27.3924L21.3052 27.3932L21.306 27.3949L21.3048 27.3924ZM27.0628 28.0719C27.1044 28.0545 27.1326 28.0075 27.1281 27.9605C27.1223 27.9028 27.0707 27.8608 27.0129 27.8666C27.0129 27.8666 24.0333 28.3076 21.2183 27.2772C21.5251 26.2806 22.3401 26.6405 23.5724 26.7398C25.7935 26.8724 27.7843 26.5478 29.2557 26.1255C30.5304 25.7598 32.2049 25.0383 33.5054 24.0117C33.9439 24.9751 34.0989 26.0358 34.0989 26.0358C34.0989 26.0358 34.4385 25.9751 34.7223 26.1497C34.9904 26.3147 35.187 26.6575 35.0528 27.5445C34.7793 29.2012 34.0752 30.5461 32.8915 31.7834C32.1708 32.559 31.2964 33.2331 30.2955 33.7235C29.764 34.0028 29.1983 34.2443 28.6002 34.4392C24.1381 35.8968 19.5704 34.2946 18.0983 30.8541C17.9806 30.5956 17.8813 30.3246 17.8032 30.0415C17.176 27.7743 17.7084 25.0541 19.3734 23.3417C19.476 23.2328 19.5808 23.1036 19.5808 22.9419C19.5808 22.8068 19.4948 22.6642 19.4204 22.5628C18.8377 21.7179 16.8198 20.2781 17.225 17.4918C17.516 15.4902 19.2666 14.0804 20.8987 14.1639L21.3123 14.1876C22.0197 14.2296 22.6364 14.3202 23.2187 14.3447C24.1934 14.3871 25.0695 14.2454 26.1077 13.3805C26.4577 13.0887 26.7386 12.8356 27.2137 12.7554C27.2636 12.7466 27.3878 12.7022 27.636 12.7138C27.8895 12.7275 28.1306 12.7969 28.3471 12.9412C29.1792 13.4948 29.2972 14.836 29.3404 15.8169C29.365 16.3767 29.4327 17.7316 29.456 18.1206C29.5088 19.0101 29.7428 19.1352 30.2157 19.291C30.4817 19.3787 30.7286 19.444 31.0927 19.5462C32.1941 19.8555 32.847 20.1693 33.2589 20.5724C33.5046 20.8243 33.6189 21.0919 33.6542 21.3471C33.7839 22.2948 32.9185 23.4651 30.6272 24.5287C28.1227 25.6912 25.084 25.9855 22.9847 25.7515L22.2491 25.6684C20.57 25.4423 19.612 27.6122 20.6198 29.0993C21.2695 30.0578 23.0388 30.6812 24.8089 30.6816C28.8675 30.682 31.9871 28.9489 33.1475 27.4522L33.2402 27.32C33.2976 27.234 33.2502 27.1866 33.1791 27.2353C32.2311 27.884 28.02 30.4597 23.5155 29.6845C23.5155 29.6845 22.9681 29.5943 22.4685 29.4002C22.0716 29.2456 21.2404 28.8633 21.1394 28.0108C24.7744 29.1351 27.0628 28.0719 27.0628 28.0719ZM7.09673 19.4332C5.8324 19.6788 4.71812 20.3954 4.03691 21.3854C3.6296 21.0458 2.87109 20.3883 2.73684 20.1319C1.64916 18.0662 3.92386 14.0505 5.5132 11.7824C9.44084 6.17773 15.5921 1.93547 18.4395 2.7052C18.9025 2.83612 20.4357 4.61374 20.4357 4.61374C20.4357 4.61374 17.5891 6.19311 14.9495 8.39466C11.3926 11.1332 8.70643 15.1136 7.09673 19.4332ZM9.22097 28.9115C9.02979 28.9443 8.83445 28.9572 8.63744 28.9522C6.73514 28.9011 4.68071 27.1887 4.47664 25.158C4.25096 22.9132 5.39808 21.1859 7.42881 20.7761C7.67153 20.727 7.96496 20.6988 8.28125 20.7154C9.41922 20.7777 11.0958 21.6514 11.4786 24.1301C11.8178 26.3255 11.2791 28.5607 9.22097 28.9115ZM34.9879 24.9365C34.9717 24.8787 34.8653 24.4909 34.7194 24.0233C34.5735 23.5553 34.4227 23.2266 34.4227 23.2266C35.0079 22.3509 35.0183 21.5674 34.9401 21.1239C34.857 20.5741 34.628 20.1057 34.1666 19.621C33.7053 19.1368 32.7614 18.6406 31.4352 18.2682L30.7394 18.0749C30.7361 18.0463 30.7028 16.4345 30.6729 15.7425C30.6509 15.242 30.6081 14.4611 30.3658 13.6922C30.0769 12.6511 29.574 11.74 28.946 11.1573C30.6792 9.36098 31.761 7.38179 31.7581 5.68438C31.7531 2.41967 27.7436 1.43174 22.8023 3.47785L21.7553 3.92215C21.7507 3.91758 19.8626 2.06515 19.8343 2.04021C14.2006 -2.8737 -3.41354 16.705 2.21773 21.4602L3.44839 22.503C3.12919 23.3301 3.00367 24.2777 3.10633 25.2964C3.23767 26.6052 3.91264 27.8595 5.00698 28.8288C6.04562 29.7489 7.41135 30.3316 8.73636 30.3304C10.9279 35.3806 15.9354 38.4787 21.8064 38.6533C28.1044 38.8403 33.3911 35.8852 35.6064 30.5769C35.7514 30.2045 36.3661 28.5258 36.3661 27.0437C36.3661 25.5545 35.5241 24.9365 34.9879 24.9365Z" fill="#818898"/>
</g>
<defs>
<clipPath id="clip0_1_17981">
<rect width="140" height="40" fill="white" transform="translate(0.800049)"/>
</clipPath>
</defs>
</svg>
