<svg width="121" height="40" viewBox="0 0 121 40" fill="none" xmlns="http://www.w3.org/2000/svg">
<path d="M9.46804 10.6708C14.4297 10.6708 18.4711 14.7122 18.4711 19.7139C18.4711 24.7156 14.4297 28.757 9.46804 28.757C4.50635 28.757 0.464966 24.7556 0.464966 19.7139C0.464966 14.6721 4.50635 10.6708 9.46804 10.6708ZM80.0522 10.4707V26.3161C80.0522 27.5165 80.5323 27.8366 81.4527 28.0767L81.4927 28.2768H76.4109V26.3161C75.8107 27.7566 74.5703 28.6369 72.9697 28.6369C70.2488 28.6369 68.4482 26.1561 68.4482 22.4748C68.4482 20.3941 69.0484 18.6335 70.1688 17.313C71.2492 16.0326 72.7297 15.3524 74.3702 15.3524C75.1705 15.3524 75.8507 15.5124 76.4109 15.8726V13.7118C76.4109 13.2316 76.2909 12.9115 76.0508 12.6715C75.7307 12.3914 75.2105 12.2713 74.4103 12.3513H74.3702V12.1513L80.0522 10.4707ZM99.3388 15.3924V26.3161C99.3388 27.5165 99.8189 27.8366 100.739 28.0767V28.2768H95.6575V26.2761C95.0573 27.7166 93.7369 28.6369 92.2564 28.6369C90.4958 28.6369 89.3754 27.8366 88.9352 26.2761L88.8552 25.876C88.7752 25.4758 88.7351 25.0757 88.7351 24.6756V18.8336C88.7351 17.5531 88.4551 17.153 87.3347 17.073H87.2947V16.8729L92.3764 15.3924V24.5955C92.3764 25.956 92.9766 26.7163 94.097 26.7163C94.7772 26.7163 95.3374 26.3561 95.6575 25.7559V18.8336C95.6575 17.5131 95.4174 17.113 94.4971 17.0329H94.4571V16.8329L99.3388 15.3924ZM62.6462 15.3524C64.0067 15.3524 65.3271 15.8325 66.2075 16.6728C67.2078 17.6332 67.728 19.0336 67.768 20.8743V20.9143H60.1254C59.9653 23.5552 61.6059 25.7159 63.7666 25.7959C65.3271 25.916 66.6876 24.9557 67.4479 23.3951L67.6479 23.4751C67.2078 26.3961 65.4872 28.5969 62.4862 28.5969C59.085 28.5969 57.1644 25.7559 57.0843 22.1947V21.2744C57.2444 19.7139 57.7245 18.3134 58.5648 17.273C59.085 16.6328 59.6852 16.1526 60.4055 15.8325C61.0057 15.5124 61.886 15.3524 62.6062 15.3524H62.6462ZM115.584 15.3924C117.745 15.3924 119.066 16.7529 119.066 19.0736V26.5162C119.066 27.3965 119.466 27.8366 120.466 28.0767H120.506V28.2768H115.384V19.1937C115.384 17.7532 114.864 17.0329 113.784 17.0329C112.903 17.0329 112.463 17.6732 112.223 18.2334C112.263 18.5135 112.303 18.7935 112.303 19.0736V26.6362C112.303 27.5565 112.583 27.8767 113.384 28.0767H113.424V28.2768H108.662V19.1937C108.662 17.7532 108.102 17.0329 107.061 17.0329C106.221 17.0329 105.781 17.6332 105.581 18.1133V26.6762C105.581 27.5966 105.861 27.9167 106.661 28.1167H106.701V28.3168H101.94V18.7935C101.94 17.5131 101.62 17.113 100.539 17.0329H100.499V16.8329L105.581 15.4324V17.5531C106.101 16.1927 107.302 15.3924 108.822 15.3924C110.543 15.3924 111.743 16.2327 112.143 17.7532C112.663 16.3127 113.984 15.3924 115.584 15.3924ZM42.5994 11.271L47.361 22.4348L52.1226 11.271H57.2444L57.2044 11.471L57.1462 11.484C56.2638 11.6851 55.8039 12.0151 55.8039 13.1116V26.7163C55.8839 27.5966 56.3641 27.8767 57.2044 28.0767H57.2444V28.2768H50.7221V28.0767H50.7622C51.6025 27.8767 52.0826 27.5966 52.1626 26.7163V13.4717L45.8805 28.2368H45.5204L39.3983 13.8719V26.3961C39.3983 27.5165 39.8784 27.8366 40.7988 28.0367H40.8388V28.2368H37.0775V28.0367H37.1175C38.0378 27.8366 38.518 27.5165 38.518 26.3961V13.1116C38.518 11.9912 38.0378 11.6711 37.1175 11.471H37.0775V11.271H42.5994ZM86.2543 15.3924V26.3161L86.2549 26.39C86.2745 27.5298 86.7536 27.8416 87.6548 28.0767L87.6948 28.2768H82.6131V18.8336C82.6131 17.5531 82.333 17.153 81.2126 17.073H81.1726V16.8729L86.2543 15.3924ZM23.873 11.1909C26.3138 11.1909 28.3545 15.0323 28.3545 19.7139C28.3545 24.4355 26.3538 28.2368 23.873 28.2368C21.3921 28.2368 19.3914 24.4355 19.3914 19.7139C19.3914 14.9922 21.3921 11.1909 23.873 11.1909ZM30.7553 12.0713C31.6756 12.0713 32.3559 15.5124 32.3559 19.7139C32.3559 23.9153 31.6356 27.3565 30.7553 27.3565C29.8838 27.3565 29.1692 23.9838 29.155 19.8397L29.1548 19.7139C29.1548 15.5124 29.875 12.0713 30.7553 12.0713ZM74.9704 16.0726C73.3699 16.0726 72.3696 18.1933 72.3696 21.4745C72.3696 23.035 72.6496 24.3955 73.1298 25.3158C73.57 26.1961 74.2102 26.6762 74.9304 26.6762C75.6507 26.6762 76.1708 26.3561 76.4109 25.7559V16.9529C76.1308 16.3927 75.6107 16.0726 74.9704 16.0726ZM62.6062 16.1126C61.1657 16.1126 60.3254 17.8332 60.2054 20.234V20.2741H64.5669C64.6469 18.3934 64.3268 17.153 63.7266 16.5528C63.4065 16.2727 63.0464 16.1126 62.6062 16.1126ZM84.2936 10.5907C85.454 10.5907 86.3343 11.471 86.3343 12.6314C86.3343 13.7918 85.454 14.6721 84.2936 14.6721C83.1332 14.6721 82.2529 13.7918 82.2529 12.6314C82.2529 11.471 83.1332 10.5907 84.2936 10.5907Z" fill="#818898"/>
</svg>
