<svg width="138" height="40" viewBox="0 0 138 40" fill="none" xmlns="http://www.w3.org/2000/svg">
<path fill-rule="evenodd" clip-rule="evenodd" d="M14.8018 18.8921H0.984375V5.07471H14.8018V18.8921ZM137.191 18.2293V15.8339H134.216V12.11L134.116 12.1408L131.322 12.9956L131.267 13.0124V15.834H126.857V14.2621C126.857 13.5302 127.021 12.9701 127.344 12.5965C127.664 12.2275 128.122 12.0399 128.706 12.0399C129.126 12.0399 129.561 12.1388 129.999 12.3339L130.109 12.383V9.86028L130.057 9.8413C129.649 9.69452 129.093 9.62061 128.405 9.62061C127.537 9.62061 126.749 9.80942 126.062 10.1836C125.374 10.5583 124.832 11.0933 124.453 11.7734C124.076 12.4528 123.884 13.2374 123.884 14.1057V15.8339H121.813V18.2293H123.884V28.3207H126.857V18.2293H131.267V24.6422C131.267 27.2833 132.513 28.6218 134.97 28.6218C135.374 28.6218 135.799 28.5745 136.232 28.4818C136.674 28.3867 136.975 28.2917 137.152 28.1903L137.191 28.1671V25.7495L137.07 25.8295C136.909 25.937 136.708 26.0249 136.472 26.0903C136.236 26.1568 136.038 26.1901 135.885 26.1901C135.309 26.1901 134.884 26.035 134.619 25.729C134.352 25.4201 134.217 24.88 134.217 24.1245V18.2293H137.191ZM115.172 26.1905C114.093 26.1905 113.242 25.8327 112.643 25.1277C112.039 24.4193 111.734 23.4092 111.734 22.1259C111.734 20.8018 112.039 19.7655 112.643 19.0445C113.243 18.3283 114.086 17.9647 115.148 17.9647C116.179 17.9647 117 18.3119 117.588 18.9972C118.179 19.686 118.479 20.714 118.479 22.0535C118.479 23.4095 118.197 24.451 117.641 25.1478C117.088 25.8393 116.258 26.1905 115.172 26.1905ZM115.305 15.5331C113.246 15.5331 111.61 16.1364 110.444 17.3263C109.279 18.5164 108.688 20.1633 108.688 22.2216C108.688 24.1767 109.265 25.7493 110.402 26.8949C111.54 28.041 113.088 28.6215 115.004 28.6215C116.999 28.6215 118.602 28.0097 119.768 26.8033C120.933 25.5983 121.524 23.9669 121.524 21.9567C121.524 19.971 120.97 18.3868 119.876 17.2487C118.783 16.1102 117.244 15.5331 115.305 15.5331ZM103.894 15.5331C102.493 15.5331 101.335 15.8913 100.45 16.5977C99.5593 17.3083 99.1076 18.2402 99.1076 19.368C99.1076 19.9542 99.2051 20.4749 99.3969 20.9166C99.59 21.3597 99.8887 21.7498 100.286 22.0772C100.679 22.402 101.287 22.7422 102.093 23.0884C102.77 23.367 103.275 23.6028 103.596 23.7885C103.91 23.9706 104.132 24.1536 104.258 24.3319C104.38 24.5064 104.442 24.7451 104.442 25.0397C104.442 25.8787 103.814 26.2868 102.521 26.2868C102.042 26.2868 101.495 26.1867 100.895 25.9893C100.301 25.7949 99.7392 25.5103 99.2308 25.1453L99.1073 25.0567V27.9195L99.1527 27.9406C99.5734 28.1348 100.104 28.2986 100.729 28.4274C101.353 28.5564 101.92 28.622 102.413 28.622C103.932 28.622 105.156 28.2621 106.049 27.5515C106.948 26.836 107.404 25.8821 107.404 24.7153C107.404 23.8737 107.158 23.1519 106.675 22.5698C106.195 21.9924 105.362 21.4623 104.2 20.9938C103.274 20.6222 102.681 20.3138 102.437 20.077C102.201 19.8482 102.081 19.5248 102.081 19.1151C102.081 18.752 102.229 18.4611 102.532 18.2255C102.838 17.9887 103.264 17.8683 103.798 17.8683C104.293 17.8683 104.8 17.9465 105.304 18.0999C105.808 18.2533 106.25 18.4587 106.62 18.71L106.741 18.793V16.0774L106.694 16.0574C106.354 15.9112 105.904 15.7862 105.359 15.6847C104.815 15.5839 104.323 15.5331 103.894 15.5331ZM91.356 26.1905C90.277 26.1905 89.4259 25.8327 88.8263 25.1277C88.2229 24.4193 87.9177 23.4095 87.9177 22.1259C87.9177 20.8018 88.2233 19.7655 88.827 19.0445C89.4265 18.3283 90.2691 17.9647 91.3322 17.9647C92.3628 17.9647 93.1835 18.3119 93.7716 18.9972C94.3625 19.686 94.6623 20.714 94.6623 22.0535C94.6623 23.4095 94.3802 24.451 93.8242 25.1478C93.2719 25.8393 92.442 26.1905 91.356 26.1905ZM91.4886 15.5331C89.429 15.5331 87.7935 16.1364 86.6281 17.3263C85.4628 18.5164 84.8716 20.1633 84.8716 22.2216C84.8716 24.1775 85.4487 25.7493 86.5863 26.8949C87.7239 28.041 89.272 28.6215 91.1874 28.6215C93.183 28.6215 94.7863 28.0097 95.9518 26.8033C97.117 25.5983 97.7076 23.9669 97.7076 21.9567C97.7076 19.971 97.1535 18.3868 96.06 17.2487C94.966 16.1102 93.4278 15.5331 91.4886 15.5331ZM80.358 17.9963V15.8339H77.4208V28.3204H80.358V21.9331C80.358 20.847 80.6042 19.9547 81.0902 19.2807C81.5699 18.6148 82.2092 18.2774 82.9898 18.2774C83.2543 18.2774 83.5513 18.321 83.873 18.4073C84.1913 18.4931 84.4219 18.5862 84.5578 18.6843L84.6813 18.7737V15.8126L84.6337 15.7921C84.3602 15.6759 83.9732 15.6173 83.4836 15.6173C82.7455 15.6173 82.085 15.8545 81.5192 16.3214C81.0226 16.7318 80.6637 17.2946 80.3892 17.9963H80.358ZM72.1608 15.5331C70.8133 15.5331 69.6114 15.822 68.589 16.3916C67.5646 16.9626 66.7723 17.7776 66.2333 18.8141C65.6966 19.848 65.4241 21.0557 65.4241 22.4025C65.4241 23.5823 65.6883 24.665 66.2105 25.6192C66.7329 26.575 67.4724 27.3227 68.4084 27.8414C69.3431 28.3593 70.4234 28.6219 71.6195 28.6219C73.0154 28.6219 74.2072 28.3428 75.1627 27.7925L75.2013 27.7703V25.0794L75.0778 25.1695C74.645 25.4848 74.1613 25.7365 73.6409 25.9178C73.1217 26.099 72.6484 26.1905 72.2334 26.1905C71.0809 26.1905 70.1557 25.8299 69.4841 25.1189C68.811 24.407 68.4698 23.4074 68.4698 22.1494C68.4698 20.8836 68.8257 19.8583 69.527 19.1017C70.2263 18.3474 71.1532 17.9647 72.2819 17.9647C73.2473 17.9647 74.188 18.2916 75.0781 18.9372L75.2013 19.0267V16.1914L75.1615 16.169C74.8266 15.9815 74.3697 15.8267 73.8027 15.7093C73.2379 15.5921 72.6856 15.5331 72.1608 15.5331ZM63.4012 15.834H60.464V28.3204H63.4012V15.834ZM61.9627 10.5147C61.4792 10.5147 61.0576 10.6793 60.7112 11.0054C60.3634 11.3324 60.1869 11.7442 60.1869 12.2301C60.1869 12.7084 60.3613 13.1127 60.7058 13.431C61.0481 13.7484 61.4711 13.9093 61.9628 13.9093C62.4544 13.9093 62.8789 13.7484 63.2253 13.4315C63.574 13.1127 63.7508 12.7085 63.7508 12.2301C63.7508 11.7612 63.5787 11.3536 63.2397 11.0186C62.9009 10.6842 62.4711 10.5147 61.9627 10.5147ZM54.6342 14.9128V28.3204H57.6317V10.897H53.483L48.2097 23.8386L43.0922 10.897H38.7746V28.3203H41.5915V14.9114H41.6882L47.0921 28.3204H49.2179L54.5375 14.9128H54.6342ZM16.2407 18.8921H30.0579V5.07471H16.2407V18.8921ZM14.8014 34.1536H0.984375V20.3363H14.8014V34.1536ZM16.2407 34.1536H30.0579V20.3363H16.2407V34.1536Z" fill="#818898"/>
</svg>
