<svg width="102" height="17" viewBox="0 0 102 17" fill="none" xmlns="http://www.w3.org/2000/svg">
<path d="M7.24783 1.06996C11.4653 1.06996 14.9004 4.50513 14.9004 8.75659C14.9004 13.008 11.4653 16.4432 7.24783 16.4432C3.03039 16.4432 -0.404785 13.0421 -0.404785 8.75659C-0.404785 4.47112 3.03039 1.06996 7.24783 1.06996ZM67.2443 0.899902V14.3685C67.2443 15.3889 67.6525 15.6609 68.4347 15.865L68.4688 16.0351H64.1493V14.3685C63.6391 15.5929 62.5847 16.3412 61.2243 16.3412C58.9115 16.3412 57.381 14.2325 57.381 11.1034C57.381 9.33479 57.8911 7.83827 58.8435 6.71589C59.7618 5.62752 61.0202 5.04932 62.4147 5.04932C63.0949 5.04932 63.6731 5.18537 64.1493 5.49147V3.65484C64.1493 3.2467 64.0473 2.97461 63.8432 2.77054C63.5711 2.53246 63.1289 2.43043 62.4487 2.49845H62.4147V2.32839L67.2443 0.899902ZM83.638 5.08333V14.3685C83.638 15.3889 84.0461 15.6609 84.8284 15.865V16.0351H80.5089V14.3345C79.9987 15.5589 78.8763 16.3412 77.6179 16.3412C76.1214 16.3412 75.1691 15.6609 74.7949 14.3345L74.7269 13.9944C74.6589 13.6543 74.6249 13.3141 74.6249 12.974V8.00833C74.6249 6.91996 74.3868 6.57984 73.4345 6.51182H73.4005V6.34176L77.7199 5.08333V12.906C77.7199 14.0624 78.2301 14.7086 79.1824 14.7086C79.7606 14.7086 80.2368 14.4025 80.5089 13.8923V8.00833C80.5089 6.88595 80.3048 6.54583 79.5226 6.47781H79.4885V6.30775L83.638 5.08333ZM52.4493 5.04932C53.6057 5.04932 54.7281 5.45746 55.4763 6.1717C56.3266 6.98798 56.7688 8.17839 56.8028 9.74293V9.77694H50.3066C50.1705 12.0217 51.565 13.8583 53.4016 13.9264C54.7281 14.0284 55.8845 13.2121 56.5307 11.8857L56.7007 11.9537C56.3266 14.4365 54.8641 16.3072 52.3132 16.3072C49.4223 16.3072 47.7897 13.8923 47.7217 10.8653V10.083C47.8577 8.75659 48.2659 7.56618 48.9801 6.68188C49.4223 6.13769 49.9324 5.72955 50.5446 5.45746C51.0548 5.18537 51.8031 5.04932 52.4153 5.04932H52.4493ZM97.4467 5.08333C99.2833 5.08333 100.406 6.23973 100.406 8.2124V14.5386C100.406 15.2868 100.746 15.6609 101.596 15.865H101.63V16.0351H97.2766V8.31444C97.2766 7.09002 96.8345 6.47781 95.9162 6.47781C95.1679 6.47781 94.7938 7.022 94.5897 7.49816C94.6237 7.73624 94.6577 7.97432 94.6577 8.2124V14.6406C94.6577 15.4229 94.8958 15.695 95.576 15.865H95.61V16.0351H91.5627V8.31444C91.5627 7.09002 91.0865 6.47781 90.2022 6.47781C89.488 6.47781 89.1138 6.98798 88.9438 7.39612V14.6746C88.9438 15.4569 89.1818 15.729 89.8621 15.899H89.8961V16.0691H85.8487V7.97432C85.8487 6.88595 85.5766 6.54583 84.6583 6.47781H84.6243V6.30775L88.9438 5.11734V6.91996C89.3859 5.76356 90.4063 5.08333 91.6987 5.08333C93.1612 5.08333 94.1816 5.79758 94.5217 7.09002C94.9638 5.8656 96.0862 5.08333 97.4467 5.08333ZM35.4095 1.58013L39.4568 11.0694L43.5042 1.58013H47.8577L47.8237 1.75019L47.7743 1.76119C47.0243 1.93214 46.6333 2.21261 46.6333 3.14467V14.7086C46.7013 15.4569 47.1095 15.695 47.8237 15.865H47.8577V16.0351H42.3138V15.865H42.3478C43.0621 15.695 43.4702 15.4569 43.5382 14.7086V3.45077L38.1984 16.0011H37.8923L32.6885 3.79089V14.4365C32.6885 15.3889 33.0967 15.6609 33.8789 15.831H33.913V16.0011H30.7159V15.831H30.7499C31.5321 15.6609 31.9403 15.3889 31.9403 14.4365V3.14467C31.9403 2.19234 31.5321 1.92025 30.7499 1.75019H30.7159V1.58013H35.4095ZM72.5162 5.08333V14.3685L72.5167 14.4313C72.5333 15.4002 72.9406 15.6652 73.7066 15.865L73.7406 16.0351H69.4211V8.00833C69.4211 6.91996 69.183 6.57984 68.2307 6.51182H68.1967V6.34176L72.5162 5.08333ZM19.492 1.51211C21.5667 1.51211 23.3013 4.77723 23.3013 8.75659C23.3013 12.77 21.6007 16.0011 19.492 16.0011C17.3833 16.0011 15.6827 12.77 15.6827 8.75659C15.6827 4.74322 17.3833 1.51211 19.492 1.51211ZM25.342 2.26037C26.1243 2.26037 26.7025 5.18537 26.7025 8.75659C26.7025 12.3278 26.0903 15.2528 25.342 15.2528C24.6012 15.2528 23.9938 12.386 23.9817 8.86353L23.9816 8.75659C23.9816 5.18537 24.5938 2.26037 25.342 2.26037ZM62.9249 5.66153C61.5644 5.66153 60.7141 7.46415 60.7141 10.2531C60.7141 11.5796 60.9522 12.7359 61.3603 13.5182C61.7345 14.2665 62.2786 14.6746 62.8909 14.6746C63.5031 14.6746 63.9452 14.4025 64.1493 13.8923V6.40979C63.9112 5.93362 63.4691 5.66153 62.9249 5.66153ZM52.4153 5.69554C51.1909 5.69554 50.4766 7.15804 50.3746 9.19874V9.23275H54.0818C54.1499 7.6342 53.8778 6.57984 53.3676 6.06967C53.0955 5.83159 52.7894 5.69554 52.4153 5.69554ZM70.8496 1.00194C71.8359 1.00194 72.5842 1.75019 72.5842 2.73653C72.5842 3.72287 71.8359 4.47112 70.8496 4.47112C69.8632 4.47112 69.115 3.72287 69.115 2.73653C69.115 1.75019 69.8632 1.00194 70.8496 1.00194Z" fill="white" fill-opacity="0.5"/>
</svg>
